<?xml version="1.0" standalone="no"?>
<!DOCTYPE svg PUBLIC "-//W3C//DTD SVG 20010904//EN"
 "http://www.w3.org/TR/2001/REC-SVG-20010904/DTD/svg10.dtd">
<svg version="1.0" xmlns="http://www.w3.org/2000/svg"
 width="500.000000pt" height="500.000000pt" viewBox="0 0 500.000000 500.000000"
 preserveAspectRatio="xMidYMid meet">

<g transform="translate(0.000000,500.000000) scale(0.100000,-0.100000)"
fill="#000000" stroke="none">
<path d="M2495 4723 c-27 -7 -78 -15 -112 -18 -89 -7 -177 -22 -268 -46 -44
-11 -120 -25 -169 -29 -79 -8 -95 -13 -142 -46 -30 -20 -54 -40 -54 -43 0 -24
-110 -54 -255 -70 -107 -12 -238 -103 -292 -204 -20 -37 -40 -57 -73 -75 -61
-33 -116 -75 -103 -79 5 -2 33 11 60 29 28 18 89 54 134 81 46 26 111 74 144
106 33 33 64 56 69 53 5 -3 6 0 2 6 -4 7 -2 12 4 12 7 0 25 11 40 24 20 16 56
29 117 40 48 9 97 19 109 22 12 3 27 -1 35 -9 23 -23 89 -41 102 -28 8 8 1 11
-26 11 -20 0 -37 5 -37 10 0 6 5 10 10 10 6 0 29 18 51 40 22 22 47 40 55 40
9 0 13 4 10 9 -3 5 -16 7 -29 4 -18 -4 -19 -3 -7 6 13 9 12 11 -5 12 l-20 0
20 9 c32 14 87 12 82 -2 -2 -7 -12 -12 -22 -11 -11 1 -14 -2 -7 -9 12 -12 77
5 147 38 90 42 168 55 372 60 l192 6 68 -32 c37 -18 81 -34 98 -35 16 -2 52
-6 78 -9 45 -4 86 -11 132 -22 16 -4 17 -3 5 5 -24 15 -180 52 -191 46 -10 -7
-96 22 -113 36 -5 5 15 8 45 7 87 -2 119 1 119 12 0 6 -32 10 -75 10 -40 0
-100 7 -132 16 -77 22 -108 23 -168 7z m100 -13 c4 -6 -17 -10 -57 -9 -47 1
-57 3 -38 9 36 12 88 12 95 0z m-755 -155 c-7 -8 -17 -15 -23 -15 -6 0 -2 7 9
15 25 19 30 19 14 0z m-466 -191 c-85 -81 -151 -131 -160 -121 -16 16 75 117
105 117 5 0 13 5 17 12 5 7 3 8 -6 3 -9 -5 -11 -4 -6 3 4 7 15 12 25 12 9 0
32 11 51 25 64 47 53 25 -26 -51z m21 56 c-3 -5 -11 -10 -16 -10 -6 0 -7 5 -4
10 3 6 11 10 16 10 6 0 7 -4 4 -10z"/>
<path d="M2270 4637 c-63 -13 -45 -16 50 -8 73 6 79 8 38 11 -25 3 -65 1 -88
-3z"/>
<path d="M2515 4544 c22 -16 59 -40 82 -54 43 -26 223 -210 223 -228 0 -6 12
-18 28 -28 15 -9 40 -32 56 -51 24 -28 27 -36 15 -44 -20 -12 -117 0 -166 22
-23 11 -47 19 -54 19 -6 0 -8 7 -5 16 5 14 4 15 -8 5 -15 -13 -11 -45 5 -35 5
3 18 -1 30 -9 19 -14 18 -15 -21 -15 -23 -1 -38 3 -35 9 4 5 0 9 -8 9 -8 0
-18 -7 -21 -15 -3 -9 -11 -15 -18 -14 -7 1 -22 1 -33 0 -19 -1 -19 -1 1 -15
28 -20 132 -49 153 -43 10 2 24 1 32 -3 8 -4 41 -2 74 5 33 7 54 14 47 14 -10
1 -10 4 -1 14 7 7 26 11 46 9 36 -5 40 -1 20 20 -30 31 -56 84 -47 98 7 11 17
6 49 -23 23 -20 46 -37 53 -37 6 0 -13 22 -43 50 -45 41 -52 51 -39 60 12 9
10 10 -10 5 -33 -9 -49 -25 -26 -25 10 0 16 -5 14 -12 -8 -23 -26 -18 -33 9
-12 51 -98 153 -167 201 -26 18 -54 39 -62 48 -9 8 -21 12 -27 8 -6 -3 -15 -1
-19 6 -7 12 -56 33 -105 47 -11 3 -2 -8 20 -23z m290 -414 c19 -8 19 -9 -2 -9
-12 -1 -28 -4 -37 -7 -9 -3 -16 -1 -16 6 0 6 5 8 10 5 6 -3 10 -1 10 4 0 13 7
13 35 1z"/>
<path d="M2895 4562 c6 -4 35 -29 66 -55 30 -25 61 -57 69 -71 7 -14 37 -41
66 -61 30 -19 54 -38 54 -41 0 -3 -4 -2 -10 1 -5 3 -10 2 -10 -4 0 -10 -189
81 -247 119 -36 24 -45 11 -18 -24 8 -11 15 -27 15 -36 0 -20 112 -76 130 -65
8 5 11 4 7 -2 -8 -12 55 -39 113 -48 25 -4 53 -14 63 -23 9 -8 17 -11 17 -5 0
6 17 9 38 8 20 -1 53 -3 72 -4 l35 -2 -30 -15 -30 -14 34 5 c18 3 42 5 52 5
11 0 16 5 13 13 -9 25 -49 39 -116 41 -55 2 -72 6 -90 24 -32 31 -14 44 45 33
26 -4 47 -5 47 -1 0 12 67 17 85 7 11 -5 15 -3 15 8 0 8 -8 15 -17 15 -10 0
-44 26 -76 56 -40 40 -67 58 -89 60 -17 2 -39 11 -48 19 -9 8 -23 15 -32 15
-8 0 -53 9 -99 20 -128 31 -135 32 -124 22z m155 -43 c99 -21 295 -128 273
-150 -4 -4 -35 -1 -68 6 -74 18 -78 18 -69 3 4 -7 4 -10 0 -6 -4 3 -7 10 -6
14 1 4 -34 24 -77 45 -85 41 -180 116 -133 105 14 -3 50 -10 80 -17z"/>
<path d="M1965 4539 c-79 -23 -114 -46 -53 -35 20 4 50 13 65 21 15 8 36 15
45 15 9 0 20 5 23 10 8 13 3 12 -80 -11z"/>
<path d="M2120 4551 c0 -6 -10 -12 -22 -12 -17 -1 -18 -3 -6 -6 23 -6 55 12
39 21 -6 4 -11 2 -11 -3z"/>
<path d="M2223 4533 c9 -2 25 -2 35 0 9 3 1 5 -18 5 -19 0 -27 -2 -17 -5z"/>
<path d="M2352 4514 c10 -10 20 -15 24 -12 3 4 -5 12 -18 18 -22 12 -22 12 -6
-6z"/>
<path d="M2028 4500 c-17 -10 -63 -18 -111 -19 -16 -1 -26 -5 -22 -11 3 -5 1
-10 -5 -10 -6 0 -8 -5 -5 -11 4 -6 14 -7 24 -4 9 4 57 20 106 35 59 19 80 29
60 29 -16 0 -37 -4 -47 -9z"/>
<path d="M2495 4487 c10 -15 20 -25 23 -22 3 3 -5 16 -17 28 l-23 22 17 -28z"/>
<path d="M2338 4443 c6 -2 18 -2 25 0 6 3 1 5 -13 5 -14 0 -19 -2 -12 -5z"/>
<path d="M1284 4421 c-18 -11 -35 -25 -40 -33 -4 -8 0 -6 12 3 10 9 33 24 49
32 17 9 26 16 20 17 -5 0 -24 -9 -41 -19z"/>
<path d="M2050 4423 c-77 -13 -198 -58 -187 -69 2 -2 24 3 48 12 24 8 64 19
89 24 25 5 63 13 85 19 60 16 205 13 235 -4 14 -8 35 -14 48 -15 12 0 22 -5
22 -12 0 -6 3 -8 7 -5 3 4 11 3 17 -2 6 -5 54 -23 106 -41 52 -18 100 -35 106
-37 6 -2 11 3 11 11 0 8 -4 13 -8 10 -5 -3 -28 5 -51 18 -24 12 -50 21 -58 19
-8 -2 -12 0 -8 4 13 14 -16 31 -46 27 -24 -3 -28 -1 -16 7 13 10 13 11 0 12
-8 1 -23 0 -34 -1 -12 -1 -16 2 -11 11 5 7 4 10 -1 7 -5 -3 -43 0 -84 8 -95
17 -163 16 -270 -3z"/>
<path d="M1204 4358 l-19 -23 23 19 c21 18 27 26 19 26 -2 0 -12 -10 -23 -22z"/>
<path d="M1990 4365 c0 -48 182 -195 240 -195 l25 1 -25 14 c-14 8 -33 14 -43
15 -25 0 -117 72 -112 88 3 7 -4 12 -15 12 -11 0 -20 3 -20 8 -1 12 -50 68
-50 57z"/>
<path d="M1460 4309 c-27 -28 -55 -65 -64 -83 -8 -18 -34 -53 -56 -79 -23 -26
-36 -47 -30 -47 9 0 9 -5 -1 -17 -12 -14 -12 -16 1 -11 8 3 14 13 14 22 -1 9
3 16 10 16 10 1 70 87 96 140 7 14 31 44 53 68 23 23 38 42 34 42 -5 0 -30
-23 -57 -51z"/>
<path d="M2687 4329 c7 -7 15 -10 18 -7 3 3 -2 9 -12 12 -14 6 -15 5 -6 -5z"/>
<path d="M1170 4310 c-6 -11 -8 -20 -6 -20 3 0 10 9 16 20 6 11 8 20 6 20 -3
0 -10 -9 -16 -20z"/>
<path d="M2735 4304 c23 -17 35 -18 35 -1 0 6 -12 13 -27 14 -26 1 -27 0 -8
-13z"/>
<path d="M2684 4295 c11 -8 25 -15 30 -15 6 0 2 7 -8 15 -11 8 -25 15 -30 15
-6 0 -2 -7 8 -15z"/>
<path d="M1512 4264 c-23 -19 -47 -46 -54 -59 -14 -26 -150 -192 -198 -242
-17 -18 -28 -33 -25 -33 13 0 55 33 55 43 0 6 22 32 48 57 26 25 81 86 122
135 41 50 83 100 94 113 30 34 4 26 -42 -14z"/>
<path d="M3446 4278 c10 -14 21 -24 23 -22 3 3 -6 15 -18 27 l-24 22 19 -27z"/>
<path d="M1786 4273 c-3 -10 -10 -28 -16 -40 -16 -38 -2 -25 20 17 11 22 16
40 11 40 -5 0 -11 -8 -15 -17z"/>
<path d="M2347 4279 c7 -7 15 -10 18 -7 3 3 -2 9 -12 12 -14 6 -15 5 -6 -5z"/>
<path d="M1826 4234 c1 -25 0 -44 -3 -41 -3 3 -16 -6 -30 -21 -14 -15 -28 -27
-31 -27 -4 -1 -17 -4 -30 -9 -22 -7 -23 -10 -17 -114 3 -59 9 -123 14 -142 l7
-35 43 85 c82 160 102 263 63 323 l-19 27 3 -46z m-66 -104 c0 -5 -5 -10 -11
-10 -5 0 -7 5 -4 10 3 6 8 10 11 10 2 0 4 -4 4 -10z"/>
<path d="M2380 4266 c0 -3 9 -10 20 -16 11 -6 20 -8 20 -6 0 3 -9 10 -20 16
-11 6 -20 8 -20 6z"/>
<path d="M1340 4219 c-19 -17 -49 -38 -67 -47 -50 -27 -182 -116 -182 -124 -1
-4 6 -5 14 -2 8 3 20 2 27 -2 28 -17 138 12 138 37 0 6 22 37 49 71 27 33 52
69 54 79 3 11 4 19 4 19 -1 -1 -18 -14 -37 -31z"/>
<path d="M2980 4240 c0 -4 19 -17 43 -28 59 -28 87 -35 87 -23 0 6 -7 11 -16
11 -9 0 -38 11 -65 25 -27 13 -49 20 -49 15z"/>
<path d="M2024 4205 c14 -34 36 -121 38 -149 1 -14 9 -28 17 -31 20 -8 24 0
12 22 -16 29 -28 77 -24 91 7 18 23 4 23 -19 0 -10 4 -19 9 -19 5 0 12 -12 15
-26 4 -14 18 -44 32 -66 29 -46 27 -56 -7 -30 -28 23 -69 45 -69 38 0 -9 91
-66 106 -66 14 0 42 -46 32 -55 -2 -3 -29 2 -59 11 -40 12 -66 28 -99 63 -49
50 -110 156 -110 190 0 12 -5 21 -10 21 -7 0 -9 -13 -5 -33 4 -20 1 -43 -9
-62 -9 -17 -16 -38 -16 -47 0 -9 -6 -23 -13 -30 -7 -7 -21 -33 -31 -58 -10
-25 -24 -52 -32 -61 -11 -12 -12 -27 -4 -75 16 -100 54 -218 92 -289 10 -18
10 -19 -6 -6 -18 15 -86 152 -86 174 0 7 -9 23 -20 35 -11 12 -20 27 -20 34 0
9 3 9 11 -2 9 -12 10 -12 5 3 -3 10 -6 33 -6 50 l-1 32 -13 -25 c-8 -14 -13
-27 -11 -31 2 -3 0 -33 -5 -67 -10 -71 -64 -186 -146 -309 -54 -80 -74 -99
-74 -68 0 19 -17 19 -36 1 -17 -17 -19 -30 -3 -20 8 4 9 -1 4 -17 -4 -13 -12
-25 -16 -27 -5 -2 -9 -11 -9 -19 0 -22 -84 -193 -110 -223 -12 -14 -18 -19
-14 -11 4 9 3 12 -4 7 -6 -4 -9 -13 -6 -20 3 -7 -3 -19 -12 -27 -15 -12 -17
-12 -9 0 5 10 4 12 -3 7 -7 -4 -12 -14 -12 -21 0 -28 -147 -210 -201 -249
-119 -87 -179 -162 -179 -223 0 -43 36 -139 44 -118 3 9 4 21 1 25 -5 9 61
160 70 160 3 0 1 -9 -5 -19 -14 -28 -12 -36 5 -21 8 7 15 18 15 24 0 6 7 22
16 35 13 18 18 20 26 10 6 -9 7 -5 3 11 -4 19 0 31 14 44 12 11 21 24 21 29 0
6 12 26 27 46 16 20 49 68 74 106 26 39 61 86 78 105 l32 35 -15 -31 c-10 -20
-12 -34 -5 -41 6 -6 3 -18 -9 -34 -10 -13 -31 -45 -46 -71 -15 -27 -32 -48
-39 -48 -7 0 -27 -14 -44 -31 -33 -30 -43 -47 -22 -33 19 11 -1 -37 -30 -73
-14 -18 -34 -36 -44 -39 -9 -3 -15 -9 -12 -14 3 -5 -4 -15 -15 -23 -12 -8 -33
-47 -47 -88 -21 -63 -25 -85 -20 -147 3 -43 14 -90 26 -115 31 -64 25 -77 -14
-35 -21 23 -32 43 -29 53 3 8 0 17 -8 20 -10 4 -13 23 -11 73 2 45 -1 62 -7
52 -5 -8 -10 -42 -10 -76 0 -53 4 -67 32 -105 29 -40 31 -50 32 -124 1 -66 6
-91 30 -142 16 -35 35 -68 43 -75 8 -6 5 5 -7 25 -12 20 -19 37 -15 37 4 0 2
6 -4 14 -13 16 -19 150 -7 184 14 43 21 21 21 -71 1 -72 6 -102 22 -140 12
-26 25 -47 28 -47 3 0 1 9 -5 21 -14 25 -6 49 15 49 8 0 15 5 15 10 0 7 -6 7
-18 1 -44 -24 -55 51 -26 181 9 40 17 116 18 168 1 77 4 95 16 95 10 0 14 -9
13 -25 -6 -103 -5 -148 2 -165 8 -18 7 -18 -8 -7 -14 12 -13 5 4 -45 12 -32
26 -61 31 -64 13 -8 2 -77 -15 -99 -10 -13 -10 -13 6 -1 15 12 17 11 17 -2 0
-9 -7 -23 -16 -31 -14 -15 -13 -16 8 -14 13 2 29 10 36 18 12 13 13 12 6 -5
-6 -19 -24 -123 -26 -155 -1 -18 21 -172 25 -177 2 -1 3 57 3 130 -1 98 4 149
17 197 17 62 41 149 50 180 3 10 7 5 12 -11 4 -17 -5 -72 -24 -152 -25 -102
-31 -147 -31 -237 0 -60 3 -110 8 -110 4 0 6 37 4 82 -2 51 0 79 6 73 5 -5 24
-48 42 -94 l32 -84 -43 -42 c-24 -23 -111 -110 -193 -193 -96 -98 -157 -153
-175 -156 -32 -6 -181 -23 -279 -31 -69 -6 -101 -17 -165 -60 -12 -8 -42 -21
-66 -30 -51 -18 -263 -136 -256 -143 2 -2 21 5 42 17 79 45 221 111 237 111
10 0 34 13 54 30 55 44 97 57 197 65 50 3 101 8 115 10 14 3 52 7 85 11 l60 6
-20 -23 c-11 -13 48 41 130 121 83 80 172 165 199 189 26 24 53 57 58 73 19
53 30 18 25 -81 -5 -101 -16 -132 -52 -150 -19 -9 -19 -10 4 -10 27 -1 81 53
107 108 9 19 20 70 25 113 10 105 25 129 31 52 4 -46 2 -62 -11 -72 -11 -9
-12 -12 -2 -10 7 2 16 -3 19 -11 3 -8 0 -11 -7 -7 -7 4 -11 0 -11 -12 0 -11 8
-23 17 -26 17 -7 33 9 33 31 0 7 7 10 17 6 14 -5 15 -1 11 35 -5 34 -2 46 18
67 25 27 32 61 13 67 -8 3 -6 14 5 36 20 38 30 41 24 7 -4 -16 -1 -25 8 -25 7
0 14 -12 16 -27 2 -16 12 -32 23 -37 11 -5 30 -30 42 -55 20 -43 21 -50 8
-101 -21 -87 -46 -164 -56 -174 -12 -13 -11 -49 1 -41 15 9 13 -2 -15 -95 -14
-46 -30 -125 -36 -175 -5 -49 -15 -117 -20 -150 -6 -33 -20 -118 -30 -190 -11
-71 -24 -159 -30 -195 -12 -71 -14 -89 -25 -267 l-7 -123 34 0 c30 0 36 5 50
38 l16 37 8 -37 7 -38 64 0 c59 0 64 2 65 23 1 12 3 60 4 107 1 47 3 87 4 89
0 3 13 -6 29 -20 80 -73 63 -46 -46 73 -61 66 -83 102 -79 126 3 13 1 83 -3
155 -6 105 -5 138 6 161 18 37 18 70 0 104 -26 50 -14 179 32 342 23 80 52
170 66 200 l25 55 1 -55 c0 -34 4 -50 9 -42 5 9 11 -8 15 -45 29 -247 106
-439 251 -627 33 -43 81 -107 106 -142 25 -35 49 -61 52 -58 3 4 -13 34 -37
68 -58 82 -64 96 -33 67 15 -14 27 -28 27 -32 0 -9 100 -119 177 -194 59 -57
103 -128 118 -187 6 -23 0 -36 -35 -78 -23 -27 -48 -50 -56 -50 -8 0 -14 -9
-14 -21 0 -20 1 -20 31 -2 17 10 45 35 62 55 19 24 39 38 53 38 34 0 36 -13
12 -59 -12 -22 -18 -44 -15 -48 11 -10 20 3 82 122 59 114 97 165 124 165 36
1 41 14 26 64 -8 27 -16 65 -17 85 -1 20 -4 2 -7 -39 -3 -41 -2 -78 3 -81 4
-4 3 -10 -4 -14 -7 -4 -15 -3 -19 3 -7 11 -17 -3 -85 -111 -38 -61 -59 -69
-64 -24 -4 31 -22 37 -22 8 0 -37 -19 -32 -26 6 -10 54 -46 102 -180 239 -121
122 -233 273 -275 369 -12 28 -31 70 -42 95 -34 75 -66 173 -60 183 3 5 11 -1
18 -13 l13 -23 7 24 c4 13 14 29 22 34 16 12 5 51 -46 152 -35 69 -39 93 -15
93 9 0 12 -5 8 -12 -4 -7 -3 -8 4 -4 10 6 52 -13 136 -61 11 -7 39 -28 61 -47
22 -20 61 -43 87 -51 26 -9 63 -27 83 -41 20 -13 40 -24 45 -24 4 0 10 -4 12
-9 2 -6 26 -15 53 -21 28 -7 70 -18 93 -26 30 -9 50 -11 62 -4 10 5 40 11 67
11 39 2 53 8 78 33 16 17 36 31 44 31 7 0 20 10 29 23 14 21 13 22 -3 16 -13
-5 -16 -4 -11 5 4 6 16 9 26 6 11 -3 20 0 24 10 3 9 10 14 14 11 5 -3 19 7 32
21 15 17 25 23 28 15 2 -7 8 -10 12 -7 5 3 7 11 5 18 -3 7 7 20 20 30 14 10
25 13 25 7 0 -21 16 -9 35 27 11 20 53 69 92 109 40 40 73 75 73 79 0 4 21 36
47 71 45 61 63 68 63 24 0 -13 -1 -13 -10 0 -5 8 -12 11 -16 7 -4 -4 -3 -12 3
-18 8 -8 8 -20 3 -35 -5 -13 -6 -25 -2 -28 12 -7 14 -66 2 -66 -5 0 -10 11
-10 25 0 14 -4 25 -9 25 -4 0 -6 -11 -3 -25 2 -14 0 -25 -6 -25 -10 0 -32 -64
-47 -140 -7 -31 -6 -33 8 -21 14 11 15 9 7 -21 -6 -18 -10 -44 -10 -58 1 -20
2 -22 10 -9 9 16 27 78 37 133 3 16 8 23 13 17 4 -7 1 -35 -7 -64 -7 -28 -13
-64 -13 -79 0 -15 -11 -39 -25 -54 -13 -14 -23 -30 -20 -34 2 -4 -7 -41 -20
-81 -28 -84 -29 -93 -15 -84 15 9 -47 -90 -65 -105 -8 -7 -15 -17 -15 -22 0
-9 -2 -13 -49 -69 -35 -42 -149 -122 -238 -168 -34 -18 -67 -39 -74 -47 -19
-23 -1 -29 24 -7 12 11 45 33 72 48 28 16 77 47 110 69 33 23 73 47 88 55 35
19 172 152 222 216 22 28 48 60 60 72 26 26 98 171 116 231 19 65 32 51 27
-30 -3 -47 -12 -90 -26 -120 -12 -26 -22 -51 -22 -55 0 -4 -18 -57 -41 -118
-53 -145 -148 -335 -205 -410 -53 -70 -65 -95 -68 -151 -3 -48 -39 -114 -96
-176 -76 -81 -83 -89 -77 -94 3 -3 1 -19 -3 -35 l-9 -29 75 0 c41 0 74 4 74
10 0 5 8 17 19 27 10 10 21 32 24 49 7 37 33 96 133 302 41 84 72 157 69 161
-2 5 5 11 16 14 12 3 18 10 15 15 -5 9 20 84 49 149 8 17 15 39 15 49 0 9 18
85 40 168 50 192 70 306 72 415 1 47 5 94 10 104 5 10 5 17 -2 17 -5 0 -10 12
-10 28 l0 27 20 -33 c15 -25 18 -37 10 -47 -6 -7 -8 -20 -4 -29 6 -17 24 -22
24 -7 0 5 6 11 14 14 19 8 57 -3 50 -14 -3 -5 7 -9 21 -9 15 0 24 -4 20 -10
-15 -24 14 -7 54 32 24 23 54 67 67 96 31 70 54 202 43 250 -41 193 -34 232
74 406 39 62 77 172 77 222 0 96 -37 202 -58 167 -5 -8 -12 -9 -22 -2 -13 7
-13 10 -1 18 10 7 5 21 -28 65 -42 56 -61 73 -41 37 5 -11 10 -31 10 -45 0
-28 -18 -81 -25 -74 -3 3 -12 38 -20 79 -7 41 -17 82 -20 92 -6 13 -3 16 9 11
19 -7 21 0 4 18 -33 35 -76 96 -82 116 -4 12 -11 22 -16 22 -5 0 -12 9 -15 20
-4 12 -14 19 -23 18 -10 -2 -16 3 -14 10 1 7 -11 38 -28 70 -68 131 -77 217
-9 93 21 -39 50 -88 64 -108 14 -21 25 -43 25 -49 0 -6 13 -27 30 -45 16 -19
30 -38 30 -44 0 -5 18 -28 41 -50 22 -22 61 -69 87 -105 54 -75 112 -111 177
-109 l40 2 -45 7 c-86 13 -107 28 -133 92 -15 36 -15 39 7 65 34 41 72 121 90
190 19 74 20 199 2 232 -12 22 -14 11 -18 -100 -5 -139 -30 -229 -75 -271
l-25 -23 5 35 c3 19 17 67 31 105 30 82 35 200 10 250 -13 27 -14 28 -10 5 15
-85 17 -118 8 -124 -6 -4 -15 15 -21 45 -6 29 -18 57 -26 63 -8 6 -21 35 -28
64 -7 30 -19 57 -26 61 -10 6 -9 10 3 14 11 5 24 -6 43 -33 14 -22 28 -38 31
-36 6 7 -22 49 -63 94 -39 44 -60 129 -52 207 6 53 -6 132 -16 105 -13 -35
-14 -46 -6 -62 5 -9 5 -19 1 -22 -5 -3 -7 -29 -6 -57 3 -48 2 -51 -13 -37 -8
9 -16 25 -17 36 0 10 -9 30 -19 43 -44 61 -107 163 -107 175 0 8 -4 14 -9 14
-6 0 -44 65 -57 98 -1 1 -9 0 -18 -4 -9 -3 -14 -10 -11 -14 3 -4 -4 -10 -14
-13 -20 -5 -19 -10 5 -109 9 -38 -12 -36 -34 2 -9 16 -23 30 -29 30 -7 0 -13
5 -13 11 0 5 4 8 9 4 5 -3 9 5 7 17 -3 26 -25 70 -26 50 0 -7 -10 -17 -23 -23
l-23 -10 36 -40 c20 -21 61 -83 90 -136 30 -54 64 -111 75 -128 12 -16 25 -39
30 -50 5 -13 9 -15 12 -7 3 9 12 7 30 -8 16 -13 41 -20 67 -20 39 0 40 1 17
13 -13 6 -33 28 -45 48 -11 20 -42 62 -68 95 -49 60 -98 166 -97 207 0 26 -6
35 83 -110 34 -55 70 -109 79 -118 10 -9 15 -21 11 -26 -3 -5 2 -12 11 -15 8
-4 27 -26 41 -50 14 -24 30 -44 36 -44 5 0 8 -6 5 -12 -2 -7 -10 -12 -16 -10
-16 3 -13 -14 5 -29 22 -18 73 -128 80 -171 4 -25 -5 -15 -35 44 -22 42 -50
83 -61 91 -13 9 -18 20 -14 31 6 15 3 15 -20 5 -23 -11 -30 -10 -54 9 -15 12
-36 27 -47 33 -25 13 -91 97 -105 133 -5 14 -15 25 -21 24 -15 -4 -89 99 -89
123 0 9 -7 19 -15 23 -8 3 -15 3 -15 0 0 -14 38 -74 81 -131 58 -73 65 -91 79
-180 13 -79 -5 -203 -28 -203 -12 0 -12 3 -1 17 13 17 12 17 -11 2 -14 -8 -35
-37 -48 -62 -12 -26 -29 -47 -37 -47 -21 0 -19 9 8 31 12 10 17 18 10 19 -6 0
-15 -4 -18 -10 -10 -16 -48 -11 -74 9 -20 15 -21 19 -8 24 21 8 53 72 62 125
4 23 11 42 16 42 5 0 7 10 4 23 -3 12 -7 50 -9 85 -2 35 -7 66 -10 69 -7 8 -8
-2 -8 -99 1 -43 -3 -78 -7 -78 -5 0 -6 -12 -4 -27 2 -16 -5 -6 -15 22 -20 53
-20 65 4 65 12 0 12 4 4 20 -6 11 -15 18 -20 15 -5 -3 -12 0 -16 6 -5 8 -3 9
6 4 10 -6 11 -2 5 21 -4 16 -9 37 -10 47 -1 10 -22 40 -48 67 -26 27 -47 56
-47 63 0 8 -7 21 -17 28 -15 13 -15 12 -4 -8 12 -24 3 -31 -16 -12 -7 7 -12
-2 -16 -31 -6 -44 -13 -58 -24 -47 -4 4 -2 12 4 18 6 6 9 18 6 25 -6 17 -33
18 -33 2 -1 -23 -28 48 -35 92 -5 29 -3 45 5 50 18 11 -16 40 -48 40 -53 0
-174 104 -177 152 -2 22 -1 22 33 1 22 -14 20 -10 -10 22 -36 36 -39 37 -57
21 -16 -15 -19 -15 -31 -1 -7 8 -11 15 -9 16 44 10 119 29 137 34 15 5 22 3
22 -6 1 -8 22 -36 49 -62 42 -43 49 -47 60 -33 9 11 10 16 2 16 -6 0 -11 5
-11 10 0 6 6 10 14 10 8 0 18 5 22 11 5 8 -1 10 -17 6 -13 -3 -33 -2 -43 2
-19 7 -18 8 5 15 13 5 27 8 31 7 4 0 5 7 2 17 -3 9 15 -4 41 -30 25 -27 50
-48 54 -48 14 0 41 -36 41 -53 0 -10 -8 -17 -20 -17 -27 0 -94 37 -78 43 7 2
1 4 -14 3 -16 0 -28 -4 -28 -8 0 -14 54 -43 98 -53 26 -6 46 -16 48 -25 18
-93 18 -90 -10 -90 -14 0 -26 5 -26 10 0 6 -7 10 -15 10 -8 0 -15 -4 -15 -9 0
-5 -8 -12 -17 -14 -12 -3 -8 -5 9 -6 19 -1 29 -9 37 -28 l11 -28 -5 28 c-5 25
-3 27 25 27 24 0 30 -4 30 -21 0 -11 5 -17 10 -14 6 4 8 11 5 16 -12 19 6 28
23 11 21 -20 32 -42 70 -140 25 -61 30 -69 34 -48 3 14 2 27 -3 28 -4 2 -10
15 -13 29 -5 31 -30 82 -60 122 -18 24 -18 29 -6 37 8 5 24 10 35 10 16 0 17
2 6 9 -9 6 -22 4 -35 -4 -15 -9 -28 -10 -45 -4 -19 7 -22 15 -19 39 3 17 2 30
-1 30 -3 0 -7 17 -9 38 -4 51 -6 65 -15 80 -14 21 5 13 29 -13 13 -14 29 -25
35 -25 7 0 5 6 -6 13 -10 8 -15 19 -12 24 4 6 -4 14 -18 17 -14 4 -25 11 -25
16 0 6 -7 10 -15 10 -8 0 -15 5 -15 12 0 6 -3 8 -7 5 -3 -4 2 -16 12 -27 10
-11 13 -20 7 -20 -7 0 -9 -7 -5 -17 6 -17 5 -16 -15 0 -11 11 -18 25 -16 32 3
7 -7 18 -23 25 -16 7 -36 23 -45 36 l-18 22 78 15 c73 14 75 15 29 16 -27 1
-69 -4 -94 -11 -33 -8 -51 -8 -63 0 -14 8 -17 7 -16 -5 1 -19 -130 -55 -181
-50 -18 1 -34 -1 -36 -6 -2 -6 -10 -6 -22 -1 -11 6 -40 7 -65 4 l-45 -6 40
-12 c22 -6 45 -12 51 -12 21 0 56 -49 59 -82 2 -30 -9 -72 -26 -91 -3 -5 -17
2 -31 15 -44 42 -83 73 -112 88 -16 8 -33 25 -38 36 -6 12 -20 24 -32 27 -11
2 -41 12 -66 20 -25 9 -65 21 -89 27 -32 9 -40 14 -30 21 18 11 106 12 113 0
3 -5 18 -12 32 -15 27 -7 113 -61 125 -79 4 -5 9 -5 13 1 3 5 -28 31 -69 57
-41 25 -81 53 -89 60 -11 11 -28 12 -87 3 -145 -20 -228 3 -322 90 -31 29 -47
39 -43 27z m139 -132 c18 -9 35 -16 40 -15 9 3 83 -34 119 -59 26 -19 26 -19
21 1 -3 11 -10 20 -15 20 -5 0 -7 4 -4 9 6 9 81 -6 152 -29 37 -12 37 -13 14
-22 -13 -5 -47 -11 -75 -13 -29 -3 -63 -9 -76 -14 -20 -8 -14 -10 28 -8 29 1
54 -1 57 -3 7 -7 9 -48 7 -105 l-3 -50 -19 40 c-10 22 -19 50 -19 62 0 29 -13
35 -36 18 -10 -8 -14 -15 -8 -15 10 0 34 -42 34 -60 0 -4 -18 1 -40 13 -22 12
-38 27 -36 33 3 7 -9 15 -26 18 -51 10 -76 40 -40 49 11 3 8 5 -9 6 -20 1 -30
9 -39 31 -7 17 -18 34 -24 38 -12 8 -48 72 -40 72 3 0 19 -8 37 -17z m-213
-59 c0 -13 -4 -24 -10 -24 -5 0 -10 14 -10 31 0 17 4 28 10 24 6 -3 10 -17 10
-31z m1060 11 c-7 -8 -24 -15 -39 -15 l-26 1 30 14 c40 18 50 18 35 0z m-1000
-45 c0 -5 -7 -7 -15 -4 -8 4 -12 10 -9 15 6 11 24 2 24 -11z m-7 -82 c-11 -89
-6 -197 12 -241 13 -30 -4 -133 -19 -116 -8 9 -26 352 -20 384 4 21 12 35 21
35 11 0 13 -11 6 -62z m497 39 c7 -12 38 -53 68 -90 30 -37 52 -70 49 -74 -6
-5 -108 93 -164 159 l-22 25 27 1 c19 0 33 -7 42 -21z m-436 -122 c-7 -30 -7
-30 -16 -6 -4 13 -6 32 -3 42 4 11 2 19 -4 19 -6 0 -11 17 -11 38 l1 37 20
-50 c12 -33 17 -60 13 -80z m605 53 c4 -13 11 -50 14 -82 6 -58 5 -59 -13 -40
-21 22 -39 144 -21 144 6 0 15 -10 20 -22z m-189 -65 c0 -13 5 -23 10 -23 6 0
10 -4 10 -9 0 -5 -9 -7 -20 -4 -16 4 -20 14 -20 47 0 30 3 37 10 26 5 -8 10
-25 10 -37z m66 5 c35 -38 37 -58 8 -58 -15 0 -27 7 -30 18 -3 9 -12 29 -20
44 -8 14 -14 29 -14 32 0 11 34 -11 56 -36z m-258 7 c-3 -3 -9 2 -12 12 -6 14
-5 15 5 6 7 -7 10 -15 7 -18z m439 6 c9 -14 9 -29 0 -62 -11 -44 -11 -44 -18
-14 -10 43 -10 95 -1 95 4 0 12 -8 19 -19z m53 -11 c0 -11 -4 -20 -10 -20 -5
0 -10 9 -10 20 0 11 5 20 10 20 6 0 10 -9 10 -20z m-411 -9 c17 -11 43 -89 32
-95 -10 -7 -91 73 -91 90 0 16 37 19 59 5z m-279 -38 c0 -9 2 -14 5 -12 2 3
35 -24 72 -61 38 -36 84 -77 103 -90 19 -14 -8 17 -60 67 -71 69 -92 95 -83
104 8 8 13 6 18 -10 3 -12 19 -28 35 -36 15 -8 39 -28 54 -45 14 -18 26 -26
26 -19 0 8 6 7 18 -4 10 -10 22 -17 25 -17 4 0 28 -13 54 -29 27 -16 61 -33
77 -37 31 -7 52 -46 60 -109 3 -21 6 -38 8 -39 2 0 13 -7 26 -14 25 -14 28 -6
8 20 -7 10 -17 14 -21 10 -5 -4 -5 -2 -2 5 4 6 3 23 -3 37 -8 22 -7 26 9 26
14 0 24 -14 37 -47 25 -67 119 -208 181 -272 39 -40 50 -57 40 -64 -8 -6 -7
-7 6 -3 9 3 24 3 33 -1 14 -5 12 -8 -7 -20 -22 -12 -20 -13 26 -8 33 3 43 2
30 -4 -19 -8 -19 -9 5 -14 14 -4 34 -8 45 -9 26 -4 32 -35 8 -41 -15 -4 -15
-5 3 -6 12 0 30 -9 42 -18 11 -10 32 -27 46 -37 14 -10 26 -27 26 -37 0 -24
42 -26 60 -4 14 17 12 20 -57 89 -18 18 -33 38 -33 44 0 7 -8 12 -18 12 -32 0
-34 13 -5 26 l28 12 -30 1 c-33 1 -115 46 -157 85 -33 32 -82 95 -77 100 2 2
30 -13 61 -34 31 -21 59 -36 61 -33 3 2 46 -23 96 -57 76 -52 99 -74 145 -143
31 -44 56 -75 56 -69 0 10 5 10 21 2 11 -7 27 -9 35 -6 9 3 12 1 9 -4 -4 -6 1
-17 9 -26 15 -14 23 -84 10 -84 -3 0 -10 14 -15 30 -7 19 -18 30 -30 30 -21 0
-26 16 -6 23 7 4 6 6 -5 6 -13 1 -16 -7 -15 -34 1 -19 5 -35 9 -35 4 0 23 -33
42 -72 28 -58 35 -86 37 -138 0 -36 5 -81 11 -100 7 -27 4 -51 -10 -103 -12
-41 -16 -70 -10 -73 14 -9 23 5 37 54 6 23 17 42 23 42 8 0 9 -55 4 -198 -12
-370 -33 -467 -128 -605 -51 -73 -113 -135 -131 -129 -5 1 -6 -2 -2 -7 6 -11
-25 -31 -50 -31 -9 0 -38 -23 -65 -52 -50 -53 -77 -60 -46 -12 37 55 2 35 -76
-44 -46 -47 -87 -81 -94 -78 -7 3 -16 0 -20 -6 -4 -7 -3 -8 4 -4 7 4 12 3 12
-3 0 -6 -19 -15 -42 -21 -24 -6 -61 -16 -83 -22 -23 -7 -115 -11 -220 -11
-165 1 -184 3 -230 24 -27 13 -55 23 -61 24 -20 1 -112 78 -119 99 -4 13 -8
16 -12 8 -7 -17 -23 -5 -23 19 0 23 -8 24 -32 2 -11 -9 -18 -11 -18 -5 0 7 5
12 10 12 6 0 10 12 9 28 l0 27 -11 -25 c-9 -21 -12 -22 -15 -7 -4 15 -7 16
-19 6 -12 -10 -16 -8 -21 9 -6 23 -19 29 -25 12 -6 -18 -66 21 -84 56 -10 19
-21 34 -25 34 -4 0 -12 14 -19 30 -7 17 -16 30 -20 30 -5 0 -14 17 -20 38 -6
20 -16 48 -22 62 -6 14 -17 39 -24 55 -7 17 -18 50 -24 75 -7 25 -18 61 -26
80 -20 49 -44 169 -37 186 3 8 0 14 -6 14 -7 0 -11 25 -11 69 0 38 -7 84 -15
104 -8 20 -15 53 -15 74 0 52 -10 83 -25 83 -17 0 -35 82 -35 156 0 59 9 80
85 199 24 39 44 75 45 80 0 6 9 16 20 23 11 7 20 18 20 25 0 7 15 30 34 50 18
20 31 38 29 41 -4 4 35 127 61 187 8 20 21 84 28 142 7 58 16 103 21 100 5 -3
4 4 -2 15 -16 30 -14 77 4 92 9 7 16 11 18 9 12 -22 47 -84 72 -129 16 -30 37
-56 46 -56 13 -1 11 7 -12 40 -15 22 -31 55 -34 71 -6 28 -5 27 18 -12 14 -23
38 -61 53 -85 16 -24 34 -52 40 -63 6 -11 15 -20 20 -20 5 -1 38 -28 72 -62
49 -47 77 -65 120 -78 32 -10 67 -25 79 -32 12 -8 30 -13 40 -10 14 4 13 5 -4
6 -13 0 -23 5 -23 11 0 5 15 7 33 5 l32 -5 -35 16 c-19 9 -46 27 -60 41 l-25
26 55 -8 c66 -9 158 -7 226 5 l49 9 -52 -3 c-37 -2 -53 1 -53 9 0 7 -10 16
-22 19 -21 7 -19 9 18 26 51 22 69 45 20 25 -20 -8 -45 -15 -56 -15 -12 0 -18
-4 -15 -10 3 -5 -2 -10 -11 -10 -10 0 -14 3 -11 6 4 4 -15 17 -41 29 -57 26
-148 103 -144 122 2 7 -2 13 -8 13 -5 0 -10 7 -10 15 0 28 42 16 76 -22 18
-21 33 -33 34 -27 0 5 -14 23 -30 39 -27 26 -29 30 -13 37 14 5 12 7 -9 7 -20
1 -35 13 -59 46 -18 25 -34 43 -37 40 -3 -2 7 -20 22 -39 30 -40 32 -46 10
-46 -17 0 -48 65 -40 86 3 7 -6 36 -20 62 -20 39 -24 57 -19 86 7 35 25 41 25
9z m777 -5 c-3 -8 -6 -5 -6 6 -1 11 2 17 5 13 3 -3 4 -12 1 -19z m148 2 c3 -5
-1 -10 -9 -10 -9 0 -16 5 -16 10 0 6 4 10 9 10 6 0 13 -4 16 -10z m-523 -50
c-4 -40 -7 -44 -21 -35 -6 3 -11 22 -11 41 0 28 4 35 18 32 13 -3 16 -11 14
-38z m156 2 c18 -46 22 -77 12 -92 -10 -16 -7 -21 -35 59 -8 24 -15 50 -15 57
0 22 27 5 38 -24z m-82 20 c15 -11 37 -69 29 -81 -16 -27 -32 -6 -49 62 -6 27
0 33 20 19z m207 -7 c-3 -9 -8 -14 -10 -11 -3 3 -2 9 2 15 9 16 15 13 8 -4z
m-334 -35 c0 -10 -3 -8 -9 5 -12 27 -12 43 0 25 5 -8 9 -22 9 -30z m101 -43
c0 -11 -5 -17 -12 -15 -8 3 -14 24 -15 49 l-2 44 14 -30 c8 -16 14 -38 15 -48z
m-737 -37 c5 -53 5 -54 -8 -25 -8 17 -14 50 -14 75 0 58 14 27 22 -50z m906
25 c12 -31 21 -60 21 -65 0 -5 12 -35 26 -67 54 -117 35 -107 -24 12 -19 39
-62 156 -62 169 0 3 4 6 9 6 5 0 19 -25 30 -55z m141 -7 c10 -54 25 -117 47
-193 3 -13 2 -17 -5 -10 -9 9 -82 240 -82 259 0 3 6 6 14 6 8 0 18 -22 26 -62z
m-368 -13 c-2 -14 -8 -23 -12 -20 -10 6 -1 45 10 45 4 0 5 -11 2 -25z m135
-13 c2 -18 -1 -32 -6 -32 -6 0 -9 8 -9 18 0 9 -3 25 -7 36 -6 14 -5 18 6 14 7
-2 15 -19 16 -36z m193 22 c0 -8 -5 -12 -10 -9 -6 4 -8 11 -5 16 9 14 15 11
15 -7z m-283 -20 c-9 -9 -28 6 -21 18 4 6 10 6 17 -1 6 -6 8 -13 4 -17z m-562
-68 c2 -31 0 -56 -5 -56 -5 0 -9 28 -9 61 0 75 10 71 14 -5z m1266 -46 c25
-50 34 -80 36 -130 2 -36 0 -58 -3 -50 -4 8 -19 43 -35 78 -16 35 -32 75 -35
89 -4 16 -9 21 -14 13 -5 -8 -12 1 -20 24 -9 29 -9 40 1 52 16 20 28 8 70 -76z
m-711 65 c0 -8 0 -18 1 -22 0 -4 -4 -9 -10 -11 -6 -2 -11 8 -11 22 0 14 5 26
10 26 6 0 10 -7 10 -15z m668 -110 c-3 -3 -9 2 -12 12 -6 14 -5 15 5 6 7 -7
10 -15 7 -18z m-1093 -47 c17 -36 70 -86 131 -125 17 -11 17 -12 -9 -12 -30
-1 -32 0 -90 51 -25 22 -42 49 -52 81 -17 58 -7 61 20 5z m820 -92 c25 -32 43
-61 39 -65 -3 -3 -14 4 -24 17 -10 12 -22 22 -27 22 -19 1 -108 142 -96 154 3
3 18 -11 34 -32 15 -20 49 -63 74 -96z m629 98 c20 -20 36 -40 36 -44 0 -5 5
-12 12 -16 7 -5 8 -3 3 5 -4 7 5 5 21 -5 15 -11 35 -18 43 -17 40 6 141 -197
149 -298 4 -48 0 -66 -26 -120 -33 -68 -33 -89 0 -49 l20 25 -3 -24 c-6 -38
-32 -48 -60 -22 -22 20 -22 23 -7 49 39 67 47 113 33 191 -12 58 -46 141 -59
141 -2 0 6 -36 17 -79 12 -48 17 -86 12 -98 -5 -10 -9 -27 -10 -38 -4 -45 -27
-107 -36 -98 -6 6 -4 23 6 46 8 20 15 51 15 69 0 46 -29 133 -67 199 -29 51
-93 119 -112 119 -5 0 -12 16 -15 36 -4 19 -10 42 -13 50 -8 22 2 17 41 -22z
m237 -55 c10 -19 9 -20 -10 -9 -12 6 -21 18 -21 26 0 19 16 10 31 -17z m-2150
-121 c-10 -31 -11 -29 -6 16 3 27 6 67 7 90 1 32 3 29 5 -16 2 -31 -1 -71 -6
-90z m1443 11 c40 -67 46 -87 15 -49 -44 54 -72 110 -55 110 2 0 20 -27 40
-61z m529 27 c36 -54 65 -266 38 -266 -10 0 -12 5 -31 85 -6 28 -15 66 -20 85
-26 109 -21 149 13 96z m-1248 -6 c-3 -5 -14 -10 -23 -10 -15 0 -15 2 -2 10
20 13 33 13 25 0z m650 -81 c22 -23 33 -38 25 -34 -50 28 -90 57 -90 65 0 21
28 8 65 -31z m435 -39 c-12 -16 -23 -30 -25 -30 -2 0 1 14 6 30 6 17 18 30 26
30 11 0 10 -7 -7 -30z m-1850 -77 c-11 -17 -11 -17 -6 0 3 10 6 24 7 30 0 9 2
9 5 0 3 -7 0 -20 -6 -30z m1340 28 c0 -5 -9 -7 -20 -4 -11 3 -20 7 -20 9 0 2
9 4 20 4 11 0 20 -4 20 -9z m920 -51 c0 -33 -4 -60 -10 -60 -5 0 -8 27 -7 60
3 78 17 78 17 0z m-714 5 c3 -22 -2 -19 -27 17 l-23 32 24 -17 c13 -9 25 -23
26 -32z m63 -41 c5 4 15 -3 21 -14 11 -20 10 -20 -22 -7 -19 8 -34 22 -36 33
-3 18 -2 18 12 0 8 -10 19 -15 25 -12z m-1732 -45 c-14 -30 -32 -63 -41 -74
-14 -19 -15 -18 -6 13 10 38 59 126 66 119 3 -2 -6 -29 -19 -58z m2038 32 c3
-5 1 -12 -5 -16 -5 -3 -10 1 -10 9 0 18 6 21 15 7z m25 -67 c0 -14 -4 -22 -10
-19 -5 3 -10 17 -10 31 0 14 4 22 10 19 6 -3 10 -17 10 -31z m43 -33 c6 -29 5
-32 -8 -21 -9 7 -13 15 -11 17 3 3 0 16 -5 30 -5 14 -6 30 -2 36 7 12 16 -9
26 -62z m236 5 c-9 -8 -10 -7 -5 7 3 10 7 24 7 30 1 7 3 4 6 -7 3 -10 -1 -23
-8 -30z m-425 -8 c6 -4 7 -10 3 -15 -10 -9 -27 16 -26 37 1 13 1 13 6 0 3 -8
11 -18 17 -22z m156 -8 c0 -5 -4 -10 -10 -10 -5 0 -10 5 -10 10 0 6 5 10 10
10 6 0 10 -4 10 -10z m104 -51 c29 -41 29 -42 14 -88 -14 -41 -16 -43 -21 -21
-3 14 -12 53 -20 88 -7 34 -11 62 -8 62 3 0 19 -19 35 -41z m-200 -9 c8 -16
11 -30 6 -30 -5 0 -12 -9 -15 -21 -4 -11 -9 -18 -12 -16 -2 3 0 14 6 25 11 20
4 62 -10 62 -5 0 -9 -9 -9 -20 0 -11 -4 -20 -10 -20 -13 0 -13 6 0 31 15 27
26 24 44 -11z m366 -6 c-18 -21 -24 -10 -9 18 8 14 14 18 17 10 2 -7 -2 -19
-8 -28z m-2500 -59 c0 -5 -108 -75 -116 -75 -18 0 8 26 51 50 50 28 65 34 65
25z m44 -62 c-17 -50 -77 -203 -79 -203 -12 0 14 86 43 148 33 68 48 92 36 55z
m2181 -3 c3 -5 1 -10 -4 -10 -6 0 -11 5 -11 10 0 6 2 10 4 10 3 0 8 -4 11 -10z
m-2452 -29 c-3 -11 -14 -27 -24 -37 -18 -16 -19 -16 -19 1 0 19 27 55 41 55 4
0 5 -9 2 -19z m-76 -124 c-14 -28 -29 -64 -33 -79 -7 -32 -19 -29 -28 7 -9 36
10 99 41 136 26 31 27 31 37 10 7 -16 3 -34 -17 -74z m2526 59 c6 -15 -1 -26
-15 -26 -4 0 -8 9 -8 20 0 23 15 27 23 6z m-2399 -69 c-17 -49 -28 -58 -38
-31 -6 15 41 91 50 81 2 -2 -3 -25 -12 -50z m2191 34 c3 -5 1 -12 -5 -16 -5
-3 -10 1 -10 9 0 18 6 21 15 7z m242 -33 c-3 -7 -5 -2 -5 12 0 14 2 19 5 13 2
-7 2 -19 0 -25z m251 -86 c4 -75 3 -85 -11 -79 -12 4 -17 -3 -22 -36 -9 -57
-40 -141 -77 -207 -37 -66 -37 -65 -43 -58 -3 3 3 21 14 39 22 37 46 117 67
219 7 36 16 75 19 88 5 14 3 22 -4 22 -6 0 -11 7 -11 15 0 18 26 20 33 3 4 -8
6 -7 6 4 1 9 -4 18 -10 20 -8 3 -8 16 1 48 10 38 13 41 22 26 6 -10 13 -57 16
-104z m-288 72 c0 -8 5 -14 11 -14 8 0 7 -5 -2 -16 -12 -14 -14 -14 -20 3 -11
27 -10 55 1 48 6 -3 10 -13 10 -21z m84 -41 c9 -19 12 -33 6 -33 -5 0 -10 7
-10 16 0 8 -4 13 -9 9 -13 -8 -24 13 -17 32 8 19 8 18 30 -24z m-2523 6 c7
-14 10 -65 9 -138 -2 -64 -2 -130 -2 -147 1 -17 -5 -39 -13 -50 -13 -17 -13
-16 -5 16 6 19 10 36 10 36 0 1 -8 0 -19 -3 -48 -12 -68 176 -28 270 18 42 31
47 48 16z m2797 -30 c7 -86 -32 -208 -96 -302 -22 -32 -39 -24 -17 9 21 32 71
173 81 226 4 23 6 60 5 82 -2 28 1 37 11 34 7 -3 14 -23 16 -49z m-2598 -64
c-7 -45 -7 -46 -9 -13 -1 32 8 74 14 66 1 -2 -1 -25 -5 -53z m2361 18 c6 -18
6 -34 -1 -52 -9 -24 -10 -24 -6 -2 3 13 -2 30 -10 38 -16 17 -19 43 -4 43 6 0
15 -12 21 -27z m19 -117 c-8 -11 -8 -16 1 -21 8 -6 7 -10 -4 -16 -9 -5 -15
-23 -15 -43 0 -18 -7 -47 -16 -64 -9 -17 -15 -35 -14 -39 4 -13 -41 -99 -63
-119 -15 -13 -10 1 17 54 32 62 37 80 36 136 -1 53 1 64 13 59 15 -5 16 -3 19
52 1 17 6 39 11 49 8 18 9 18 18 -7 6 -19 5 -32 -3 -41z m-2483 12 c-3 -8 -6
-5 -6 6 -1 11 2 17 5 13 3 -3 4 -12 1 -19z m110 -10 c-3 -7 -5 -2 -5 12 0 14
2 19 5 13 2 -7 2 -19 0 -25z m-47 -3 c0 -14 -4 -25 -10 -25 -11 0 -14 33 -3
43 11 11 13 8 13 -18z m2251 -127 l-11 -33 5 34 c3 18 6 59 7 90 l2 56 3 -57
c2 -31 -1 -71 -6 -90z m127 117 c1 -14 -3 -25 -8 -25 -6 0 -10 11 -10 25 0 14
4 25 8 25 4 0 9 -11 10 -25z m-2181 -72 c8 -33 7 -43 -2 -43 -11 0 -26 67 -24
109 1 22 13 -10 26 -66z m-61 -21 c-12 -11 -18 7 -10 30 l8 23 4 -23 c2 -13 1
-26 -2 -30z m-128 17 c1 -8 -4 -23 -13 -34 -14 -19 -15 -18 -13 18 2 35 20 47
26 16z m49 -61 c-3 -8 -6 -5 -6 6 -1 11 2 17 5 13 3 -3 4 -12 1 -19z m-37 -33
c0 -23 -6 -38 -16 -42 -8 -3 -13 -12 -10 -19 3 -7 1 -16 -4 -19 -11 -7 -14 98
-3 108 18 18 33 5 33 -28z m2467 -45 c-1 -10 -3 -17 -6 -15 -2 3 -10 -3 -17
-13 -10 -13 -13 -14 -14 -3 0 12 27 51 36 51 1 0 2 -9 1 -20z m-247 -1 c0 -16
-60 -132 -77 -149 -8 -8 -2 10 15 40 17 30 33 70 37 88 6 29 25 46 25 21z
m204 -74 c-4 -15 -2 -25 5 -25 6 0 11 -11 11 -25 0 -14 -4 -25 -9 -25 -11 0
-22 66 -14 86 9 23 14 16 7 -11z m-76 -2 c9 -59 8 -113 -3 -157 -13 -58 -41
-116 -55 -116 -6 0 -10 -7 -10 -15 0 -8 -4 -15 -10 -15 -5 0 -10 7 -10 15 0 8
3 15 8 15 10 0 39 65 52 117 6 24 11 72 11 108 1 60 11 89 17 48z m-2399 -25
c-12 -23 -20 -24 -12 -1 4 11 3 14 -5 9 -7 -4 -12 -3 -12 3 0 5 9 9 19 8 16
-1 18 -5 10 -19z m251 -123 c-7 -63 -16 -115 -21 -115 -5 0 -9 8 -9 18 -1 30
34 222 39 217 2 -3 -2 -57 -9 -120z m-50 45 c0 -5 -4 -10 -10 -10 -5 0 -10 5
-10 10 0 6 5 10 10 10 6 0 10 -4 10 -10z m2010 -76 c-24 -47 -30 -54 -30 -33
0 21 49 102 58 95 1 -2 -11 -29 -28 -62z m265 -120 l-6 -36 -25 23 c-17 16
-24 31 -20 44 2 11 10 40 16 65 6 25 13 52 17 60 10 23 26 -115 18 -156z
m-165 147 c0 -6 -4 -13 -10 -16 -5 -3 -10 1 -10 9 0 9 5 16 10 16 6 0 10 -4
10 -9z m5 -76 c2 -14 -1 -27 -6 -31 -5 -3 -9 12 -9 32 0 41 11 40 15 -1z
m-1999 -97 c-20 -28 -21 -9 -4 47 l12 40 4 -32 c2 -19 -4 -42 -12 -55z m1983
15 c19 -49 16 -70 -6 -40 -9 12 -33 86 -33 103 0 18 20 -14 39 -63z m-93 22
c16 -40 17 -45 5 -45 -8 0 -31 52 -31 71 0 19 12 7 26 -26z m-2070 -53 c3 -26
2 -26 -12 -8 -8 11 -14 25 -14 32 0 7 -3 21 -6 31 -4 13 -1 12 12 -5 10 -13
19 -36 20 -50z m2302 9 c37 -32 29 -50 -22 -48 -24 1 -41 4 -37 7 5 3 11 17
15 33 8 32 13 33 44 8z m-2272 -68 c-13 -13 -28 15 -20 38 l7 24 10 -28 c5
-16 6 -31 3 -34z m2134 6 c0 -5 -4 -9 -10 -9 -5 0 -10 7 -10 16 0 8 5 12 10 9
6 -3 10 -10 10 -16z m-145 -41 c22 -74 19 -122 -12 -192 -36 -83 -41 -86 -31
-19 5 32 9 104 8 161 0 60 4 102 10 102 5 0 16 -23 25 -52z m289 34 c3 -5 -14
-30 -37 -57 -36 -40 -47 -47 -67 -42 -14 3 -31 16 -38 28 -12 18 -11 24 8 44
18 19 27 22 47 14 13 -5 34 -9 46 -8 l22 0 -22 9 c-13 5 -23 12 -23 15 0 8 58
6 64 -3z m42 -39 c-8 -16 -23 -36 -32 -44 -21 -16 -17 -8 20 48 25 39 33 36
12 -4z m-2311 -83 c-3 -27 -9 -59 -14 -72 -8 -18 -10 -10 -10 39 -1 66 6 96
20 87 5 -2 6 -27 4 -54z m2250 -10 c-10 -11 -23 -20 -29 -20 -6 1 0 10 13 20
30 26 39 26 16 0z m-408 -102 c-3 -8 -6 -5 -6 6 -1 11 2 17 5 13 3 -3 4 -12 1
-19z m-37 -12 c0 -3 -4 -8 -10 -11 -5 -3 -10 -1 -10 4 0 6 5 11 10 11 6 0 10
-2 10 -4z m47 -50 c2 -19 -1 -45 -6 -58 -8 -19 -10 -14 -10 28 -1 41 4 64 13
64 1 0 2 -15 3 -34z m103 -33 c-11 -17 -11 -17 -6 0 3 10 6 24 7 30 0 9 2 9 5
0 3 -7 0 -20 -6 -30z m-1474 -200 c20 -62 33 -117 29 -123 -3 -5 -2 -10 4 -10
5 0 14 -15 20 -33 11 -31 77 -152 115 -210 14 -21 15 -27 5 -25 -18 4 -59 62
-59 82 0 9 -4 16 -10 16 -34 0 -147 322 -164 465 l-6 50 16 -50 c8 -27 31
-101 50 -162z m1464 175 c-1 -22 -29 -89 -36 -88 -11 2 -6 34 7 38 5 2 9 15 9
28 0 13 5 24 10 24 6 0 10 -1 10 -2z m-47 -133 c-3 -9 -8 -14 -10 -11 -3 3 -2
9 2 15 9 16 15 13 8 -4z m-1593 -926 c0 -11 -4 -18 -10 -14 -5 3 -7 12 -3 20
7 21 13 19 13 -6z"/>
<path d="M2255 3978 c17 -20 37 -37 45 -37 8 -1 10 2 5 7 -6 4 -26 21 -45 37
l-34 30 29 -37z"/>
<path d="M2270 3636 c0 -2 8 -10 18 -17 15 -13 16 -12 3 4 -13 16 -21 21 -21
13z"/>
<path d="M2343 3553 c20 -16 57 -46 82 -67 25 -21 48 -37 50 -34 3 3 -10 16
-30 29 -39 27 -44 39 -17 40 9 0 -1 7 -22 15 -22 8 -47 21 -56 29 -9 8 -23 15
-30 15 -7 0 3 -12 23 -27z"/>
<path d="M2270 3422 c0 -5 15 -19 33 -32 l32 -23 -29 31 c-31 34 -36 37 -36
24z"/>
<path d="M1895 3366 c10 -14 19 -26 22 -26 7 0 -17 39 -28 46 -6 3 -3 -5 6
-20z"/>
<path d="M2560 3364 c0 -6 7 -19 15 -30 8 -10 14 -14 14 -9 0 6 -6 19 -14 29
-8 11 -15 15 -15 10z"/>
<path d="M2530 3341 c0 -5 5 -13 10 -16 6 -3 10 -2 10 4 0 5 -4 13 -10 16 -5
3 -10 2 -10 -4z"/>
<path d="M1780 3330 c0 -5 5 -10 10 -10 6 0 10 5 10 10 0 6 -4 10 -10 10 -5 0
-10 -4 -10 -10z"/>
<path d="M2640 3220 c0 -5 5 -10 11 -10 5 0 7 5 4 10 -3 6 -8 10 -11 10 -2 0
-4 -4 -4 -10z"/>
<path d="M2338 3173 c7 -3 16 -2 19 1 4 3 -2 6 -13 5 -11 0 -14 -3 -6 -6z"/>
<path d="M2598 3052 c10 -7 5 -11 -17 -15 -20 -4 -38 -18 -51 -39 -13 -22 -20
-27 -20 -15 0 9 -4 17 -9 17 -11 0 -21 -25 -21 -51 0 -14 -7 -19 -30 -19 -23
0 -28 -4 -23 -16 5 -13 16 -15 62 -9 47 6 54 5 40 -7 -9 -7 -26 -29 -38 -49
-17 -30 -19 -39 -8 -47 10 -8 21 -7 41 3 35 19 36 19 36 -1 0 -13 7 -15 31
-10 17 3 46 6 63 7 17 0 25 3 18 6 -10 4 -10 8 -1 19 18 22 39 17 50 -12 9
-26 12 -26 66 -20 32 4 79 14 105 24 39 14 50 14 57 4 10 -16 68 -25 76 -11 4
5 18 9 32 9 26 0 26 0 -8 25 -84 61 -164 82 -301 79 -43 -1 -78 0 -78 3 0 11
138 65 181 70 42 5 47 8 39 23 -7 13 -28 19 -82 24 -145 14 -223 17 -210 8z
m42 -202 c-14 -11 -32 -19 -40 -19 -8 0 1 8 20 19 45 25 51 25 20 0z m270 -11
c0 -5 -7 -9 -15 -9 -15 0 -20 12 -9 23 8 8 24 -1 24 -14z"/>
<path d="M2530 3035 c-7 -9 -10 -18 -7 -21 3 -3 10 4 17 15 13 25 8 27 -10 6z"/>
<path d="M1978 2984 c-2 -2 -24 -5 -49 -8 -57 -5 -111 -17 -124 -26 -21 -15
-75 -29 -75 -19 0 5 -11 7 -25 3 -14 -3 -31 -1 -38 5 -10 8 -21 3 -45 -20 -18
-17 -32 -35 -32 -39 0 -4 -13 -21 -30 -38 -16 -17 -32 -44 -35 -59 -4 -15 -11
-36 -16 -46 -18 -32 -1 -31 30 2 16 17 34 31 40 31 6 0 11 4 11 9 0 4 23 31
52 59 59 58 49 57 258 32 52 -6 103 -11 112 -11 10 0 15 -6 11 -14 -4 -11 -10
-12 -23 -5 -26 14 -83 12 -127 -4 -21 -7 -57 -19 -81 -27 -23 -7 -80 -34 -125
-61 -65 -39 -86 -47 -99 -39 -14 9 -16 8 -12 -4 4 -8 11 -15 18 -15 6 0 4 -5
-4 -11 -12 -8 -7 -9 18 -6 17 2 32 0 32 -5 0 -5 8 -7 18 -3 17 5 51 -15 90
-52 16 -15 56 -18 47 -3 -3 6 -12 10 -19 10 -7 0 -25 14 -41 30 -32 34 -25 53
19 53 27 0 35 12 14 19 -6 2 -8 10 -4 16 11 19 26 14 26 -8 0 -31 38 -43 101
-33 45 7 56 13 69 38 8 17 15 31 15 32 1 1 11 0 24 -4 16 -4 21 -11 18 -24 -4
-16 0 -17 47 -12 28 3 54 10 57 16 4 5 19 7 34 5 25 -5 27 -3 23 24 -4 21 0
32 14 39 10 6 16 14 13 20 -4 5 -10 7 -15 4 -5 -3 -21 0 -37 7 -15 6 -31 11
-35 10 -5 -1 -8 3 -8 9 0 5 -4 8 -9 5 -5 -3 -11 1 -15 9 -3 8 -12 15 -21 15
-8 0 -15 5 -15 10 0 6 6 10 14 10 7 0 16 14 20 31 4 23 10 30 22 25 10 -4 14
-1 12 6 -4 12 -110 22 -120 12z"/>
<path d="M3100 2880 c-13 -9 -13 -10 0 -10 8 0 22 5 30 10 13 9 13 10 0 10 -8
0 -22 -5 -30 -10z"/>
<path d="M2186 2871 c-4 -7 -5 -15 -2 -18 9 -9 19 4 14 18 -4 11 -6 11 -12 0z"/>
<path d="M2931 2745 c-24 -26 -22 -31 8 -15 19 10 36 40 23 40 -4 0 -18 -12
-31 -25z"/>
<path d="M2637 2293 c-3 -3 -2 -16 3 -29 9 -23 5 -87 -6 -106 -3 -5 -20 -18
-38 -29 -21 -13 -25 -19 -14 -19 32 0 77 52 84 95 3 22 7 42 9 44 2 2 24 -13
48 -33 52 -42 73 -48 31 -9 -47 45 -112 92 -117 86z"/>
<path d="M2088 2243 c-48 -56 -43 -100 15 -139 37 -24 153 -50 119 -27 -8 6
10 10 48 11 47 1 62 -2 69 -16 4 -9 6 -22 4 -29 -2 -6 1 -14 6 -18 6 -3 11 -1
11 4 0 6 7 11 15 11 7 0 18 6 22 13 17 27 82 68 114 71 55 6 99 26 99 45 0 9
5 22 11 28 9 9 7 11 -7 7 -10 -3 -39 2 -62 10 -39 14 -45 14 -59 1 -17 -18
-27 -20 -17 -4 4 7 1 10 -7 7 -8 -3 -14 -11 -14 -19 0 -8 -3 -18 -7 -24 -3 -5
-9 -25 -13 -43 -3 -18 -16 -37 -27 -43 -19 -10 -20 -9 -15 10 3 12 1 19 -3 16
-14 -9 -40 6 -40 24 0 14 -2 14 -10 1 -9 -13 -12 -13 -24 3 -7 9 -19 17 -27
17 -11 0 -11 2 1 10 13 9 13 11 0 20 -8 6 -23 8 -32 6 -11 -2 -15 1 -11 11 5
13 3 13 -18 1 -13 -7 -27 -17 -31 -22 -3 -5 -21 -14 -39 -20 -37 -12 -53 -38
-18 -29 21 6 21 5 3 -15 -21 -25 -28 -22 -48 20 -20 40 -20 62 0 93 19 29 14
33 -8 8z m107 -153 c7 -12 -2 -12 -30 0 -19 8 -19 9 2 9 12 1 25 -3 28 -9z
m195 -30 c0 -5 -4 -10 -10 -10 -5 0 -10 5 -10 10 0 6 5 10 10 10 6 0 10 -4 10
-10z"/>
<path d="M2980 2009 c12 -23 24 -38 27 -35 5 5 -35 76 -43 76 -2 0 5 -18 16
-41z"/>
<path d="M1670 1910 c0 -20 5 -30 14 -30 12 0 13 6 5 30 -6 17 -13 30 -15 30
-2 0 -4 -13 -4 -30z"/>
<path d="M2775 1910 c-6 -10 -56 -25 -115 -34 -103 -16 -143 -27 -192 -50 -59
-28 -97 -33 -116 -14 -9 9 -18 9 -38 -1 -14 -6 -80 -14 -146 -17 -114 -5 -120
-4 -125 16 -10 36 -62 25 -128 -28 -26 -21 -27 -23 -10 -35 14 -11 26 -11 69
0 28 8 64 12 80 10 17 -2 66 0 110 5 45 5 126 8 182 8 86 0 114 4 192 30 50
16 103 30 117 30 14 0 42 7 63 16 20 8 65 15 99 15 47 0 63 4 67 16 8 19 9 17
-33 32 -42 14 -68 14 -76 1z"/>
<path d="M3050 1696 c-26 -55 -29 -87 -6 -63 13 13 46 90 46 107 0 24 -17 5
-40 -44z"/>
<path d="M2438 1663 c7 -3 16 -2 19 1 4 3 -2 6 -13 5 -11 0 -14 -3 -6 -6z"/>
<path d="M2327 4200 c-3 -13 -13 -18 -36 -16 -23 2 -31 -2 -31 -15 0 -9 10
-19 23 -22 28 -8 178 -17 154 -11 -10 3 -28 15 -41 27 -12 12 -32 29 -43 39
-20 15 -21 15 -26 -2z"/>
<path d="M3215 4210 c-2 -3 1 -12 6 -20 8 -11 12 -12 16 -3 11 28 69 -21 143
-123 24 -32 50 -65 57 -72 7 -7 13 -17 13 -22 0 -5 3 -15 6 -23 3 -10 -3 -18
-18 -23 -22 -8 -22 -8 7 -15 l30 -7 -32 -1 c-29 -1 -33 3 -52 54 -12 31 -21
60 -21 64 0 12 -90 132 -110 148 -12 9 -20 9 -36 -2 -14 -9 -25 -10 -31 -4 -6
6 -10 5 -10 -4 0 -8 14 -22 31 -31 17 -10 47 -37 66 -61 41 -52 101 -165 94
-177 -3 -4 -19 -8 -37 -8 -30 0 -30 -1 -14 -17 14 -14 21 -15 36 -6 34 21 132
26 171 9 l35 -15 -30 -1 c-43 -1 -11 -20 34 -20 18 0 55 -11 83 -25 l49 -25
-6 23 c-4 12 -20 44 -36 70 -16 27 -29 52 -29 57 0 28 -55 172 -80 210 -32 48
-42 35 -12 -15 24 -40 53 -125 42 -125 -4 0 -22 24 -39 53 -68 113 -87 140
-110 155 l-23 16 21 -42 c28 -54 27 -64 -4 -27 l-25 30 12 -35 c6 -19 15 -39
19 -44 5 -6 9 -19 9 -30 0 -18 -1 -18 -19 -2 -10 9 -18 28 -18 42 0 30 -11 43
-22 26 -10 -17 -46 10 -46 35 0 10 -7 18 -18 18 -10 0 -21 5 -25 11 -7 11 -71
14 -77 4z m353 -243 c2 -4 9 -13 15 -20 21 -21 98 -139 94 -143 -1 -2 -19 9
-38 25 -19 16 -57 37 -86 47 -40 14 -48 20 -37 29 11 8 11 16 1 46 -7 20 -18
34 -25 31 -15 -5 -15 3 0 28 12 19 13 19 43 -8 16 -15 31 -30 33 -35z"/>
<path d="M3125 4190 c3 -5 12 -10 20 -10 8 0 17 5 20 10 4 6 -5 10 -20 10 -15
0 -24 -4 -20 -10z"/>
<path d="M1179 4173 c-13 -16 -12 -17 4 -4 9 7 17 15 17 17 0 8 -8 3 -21 -13z"/>
<path d="M1735 4170 c-10 -11 -13 -20 -7 -20 6 0 16 9 22 20 6 11 9 20 7 20
-2 0 -12 -9 -22 -20z"/>
<path d="M1111 4126 c-62 -52 -74 -65 -111 -127 -19 -32 -51 -77 -70 -100 -19
-24 -29 -39 -21 -35 8 5 17 3 22 -5 7 -11 9 -9 9 7 0 33 41 64 84 64 l38 0
-30 -34 c-16 -19 -37 -56 -47 -82 -10 -27 -27 -57 -38 -66 -16 -15 -17 -18 -3
-18 9 0 16 -8 17 -17 0 -14 2 -13 9 5 5 12 17 22 27 22 54 0 201 144 201 197
l0 23 -20 -25 c-11 -14 -29 -26 -41 -26 -17 -1 -18 -2 -4 -6 9 -2 17 -9 17
-15 0 -19 -108 -118 -129 -118 -10 0 -21 -6 -24 -12 -2 -7 -7 -10 -11 -7 -4 4
1 15 12 25 11 11 22 30 25 44 7 27 62 90 80 90 5 0 2 9 -9 21 -16 17 -26 20
-61 15 -40 -5 -57 4 -33 19 6 4 21 23 34 43 13 21 47 62 75 92 28 30 51 56 51
57 0 8 -12 0 -49 -31z"/>
<path d="M1642 4138 c-1 -17 -8 -28 -17 -28 -8 0 -15 -4 -15 -10 0 -5 -20 -34
-45 -65 l-46 -56 50 26 c28 14 53 25 56 25 3 0 5 -13 5 -30 0 -16 -4 -30 -10
-30 -5 0 -10 -4 -10 -10 0 -5 4 -10 10 -10 17 0 31 74 28 145 -2 39 -5 58 -6
43z"/>
<path d="M3118 4143 c6 -2 18 -2 25 0 6 3 1 5 -13 5 -14 0 -19 -2 -12 -5z"/>
<path d="M2530 4110 c-8 -5 -10 -10 -5 -10 6 0 17 5 25 10 8 5 11 10 5 10 -5
0 -17 -5 -25 -10z"/>
<path d="M1280 4089 c0 -5 5 -7 10 -4 6 3 10 8 10 11 0 2 -4 4 -10 4 -5 0 -10
-5 -10 -11z"/>
<path d="M981 4058 c-14 -23 -14 -23 8 -4 22 20 25 26 13 26 -4 0 -13 -10 -21
-22z"/>
<path d="M1519 4063 c-13 -16 -12 -17 4 -4 9 7 17 15 17 17 0 8 -8 3 -21 -13z"/>
<path d="M1477 4023 c-22 -22 -57 -25 -49 -4 3 9 -18 -5 -47 -31 -29 -27 -57
-48 -62 -48 -5 0 -9 -6 -9 -14 0 -12 10 -10 49 7 40 18 47 25 37 36 -9 12 -8
12 11 0 21 -13 26 -11 65 29 24 23 38 42 32 42 -5 0 -17 -8 -27 -17z"/>
<path d="M1681 3989 c-1 -27 -61 -120 -115 -178 l-31 -34 35 26 c39 29 68 64
95 117 10 19 21 37 25 40 3 3 3 16 -1 30 l-7 25 -1 -26z"/>
<path d="M1485 3950 c-10 -12 -34 -30 -54 -42 -19 -12 -29 -24 -22 -26 7 -2
20 3 29 12 9 8 32 29 50 46 18 16 29 30 24 30 -5 0 -17 -9 -27 -20z"/>
<path d="M2620 3940 c0 -5 5 -10 11 -10 5 0 7 5 4 10 -3 6 -8 10 -11 10 -2 0
-4 -4 -4 -10z"/>
<path d="M1533 3930 c-13 -5 -23 -11 -23 -14 0 -7 40 6 46 15 6 10 6 10 -23
-1z"/>
<path d="M2910 3916 c0 -2 8 -10 18 -17 15 -13 16 -12 3 4 -13 16 -21 21 -21
13z"/>
<path d="M3205 3910 c10 -16 70 -22 116 -13 l44 10 -52 4 c-28 2 -49 1 -46 -3
5 -10 5 -10 -35 1 -18 6 -30 6 -27 1z"/>
<path d="M1383 3874 c3 -6 -11 -11 -31 -11 -76 -3 -97 -8 -109 -28 -11 -19
-29 -121 -25 -139 3 -10 -36 -54 -59 -66 -13 -8 -12 5 8 78 12 48 23 92 22 97
-1 15 -29 -64 -40 -115 -6 -24 -13 -47 -18 -50 -4 -3 -12 -39 -19 -80 -6 -41
-15 -95 -21 -120 -5 -25 -12 -70 -15 -101 -4 -31 -13 -65 -20 -75 -12 -16 -15
-7 -24 67 l-11 84 4 -79 c4 -75 2 -83 -26 -123 -32 -48 -62 -103 -56 -103 2 0
21 28 42 62 41 65 60 65 28 -1 -13 -25 -15 -37 -7 -34 9 3 11 -3 8 -19 -5 -21
-4 -21 20 6 14 17 23 33 20 37 -2 4 6 32 20 61 31 70 46 142 52 258 2 52 7
102 9 110 4 14 54 50 68 50 9 0 2 -95 -7 -102 -5 -3 -11 -34 -12 -69 -2 -34
-8 -67 -14 -73 -5 -5 -10 -21 -10 -33 0 -30 -69 -183 -83 -183 -6 0 -7 -3 -4
-6 4 -4 0 -19 -8 -33 -7 -14 -21 -58 -30 -98 -18 -76 -27 -89 -90 -121 l-40
-21 37 -1 c20 0 43 6 50 13 7 7 32 27 54 44 47 37 104 137 145 253 19 56 28
105 33 194 l8 119 64 76 c35 42 64 82 64 88 0 7 11 15 25 19 14 3 25 10 25 14
0 4 -18 2 -40 -3 -22 -6 -40 -15 -40 -20 0 -4 5 -5 11 -1 20 12 -13 -39 -59
-93 -25 -29 -48 -50 -51 -48 -8 9 0 99 10 111 7 8 6 14 -1 19 -15 9 -12 25 8
33 9 4 48 39 85 78 47 49 64 74 56 80 -7 4 -10 3 -6 -2z"/>
<path d="M3000 3865 c0 -8 73 -36 78 -30 3 3 3 5 0 5 -3 0 -22 7 -42 15 -20 8
-36 13 -36 10z"/>
<path d="M3260 3844 l-45 -13 45 5 c25 3 49 10 55 15 12 12 1 10 -55 -7z"/>
<path d="M1703 3823 c-3 -10 -8 -21 -10 -25 -10 -19 6 -5 21 17 9 14 12 25 6
25 -6 0 -13 -8 -17 -17z"/>
<path d="M3098 3833 c7 -3 16 -2 19 1 4 3 -2 6 -13 5 -11 0 -14 -3 -6 -6z"/>
<path d="M1476 3805 c-11 -8 -58 -26 -104 -41 -46 -14 -82 -27 -80 -29 8 -8
175 47 199 66 13 10 20 19 14 18 -5 0 -19 -6 -29 -14z"/>
<path d="M1510 3771 c-8 -6 -18 -7 -22 -5 -4 3 -8 -2 -8 -11 0 -14 2 -14 25 1
14 9 25 18 25 20 0 6 -3 5 -20 -5z"/>
<path d="M1107 3763 c-4 -3 -7 -13 -7 -22 1 -13 3 -13 11 2 11 19 8 33 -4 20z"/>
<path d="M1665 3718 c-33 -21 -64 -39 -69 -41 -6 -2 -6 -9 0 -18 5 -8 14 -30
20 -49 l11 -35 11 28 c10 22 32 38 32 22 0 -6 -40 -78 -49 -88 -5 -4 -20 18
-34 50 -51 111 -54 105 -27 -54 14 -76 9 -92 -30 -113 -13 -7 -16 -1 -18 44
-1 28 -6 66 -12 84 -5 18 -6 40 -3 48 3 8 0 14 -6 14 -6 0 -11 7 -11 15 0 8
-3 15 -7 16 -5 0 -20 3 -34 5 -26 4 -27 3 -32 -48 -1 -14 -6 -30 -11 -35 -5
-4 -6 -3 -2 4 7 12 -12 63 -24 63 -4 0 -19 -22 -34 -50 -15 -27 -31 -52 -36
-55 -5 -3 -19 -20 -31 -38 l-22 -32 36 34 36 34 -2 -29 c-1 -16 -10 -38 -19
-48 -10 -11 -19 -29 -20 -40 -1 -12 -2 -28 -3 -36 0 -8 -4 -21 -8 -28 -5 -6
-5 -17 -2 -23 4 -5 0 -18 -9 -28 -9 -10 -23 -47 -30 -82 -7 -35 -25 -103 -40
-151 -23 -75 -32 -90 -69 -120 -54 -44 -143 -88 -178 -88 -15 0 -30 -4 -33 -9
-9 -13 74 -1 129 20 28 10 52 19 54 19 2 0 -16 -18 -40 -40 -32 -29 -39 -39
-26 -40 10 0 15 5 12 10 -3 6 -1 10 6 10 7 0 19 7 28 14 9 8 37 33 63 56 25
22 49 52 52 65 4 14 11 25 17 25 15 0 95 85 164 175 29 38 -6 -35 -48 -100
-55 -85 -388 -410 -402 -392 -5 7 -18 11 -27 9 -10 -2 -18 0 -18 5 0 4 -10 14
-22 22 -18 11 -17 7 6 -17 29 -31 29 -32 13 -69 -8 -21 -20 -69 -26 -108 -6
-38 -14 -82 -17 -97 -5 -22 -3 -28 10 -28 11 0 16 9 16 29 0 17 5 33 10 36 6
3 10 0 10 -7 0 -7 10 -24 21 -38 20 -25 20 -25 0 17 -12 23 -21 49 -21 58 0
21 75 147 100 170 11 10 20 23 20 29 0 7 13 19 28 28 47 28 272 253 272 272 0
18 71 116 108 150 13 11 25 41 32 75 14 72 27 104 40 96 6 -4 10 -3 9 2 -4 25
5 44 46 89 25 27 45 43 45 36 0 -6 5 -12 10 -12 6 0 10 12 10 28 0 15 5 34 10
42 9 13 11 13 20 0 7 -10 10 -11 10 -2 0 7 10 29 23 50 29 47 57 121 57 150 0
13 5 32 11 43 19 37 5 36 -56 -3z m35 -17 c0 -12 -20 -25 -27 -18 -7 7 6 27
18 27 5 0 9 -4 9 -9z m-329 -114 c-10 -9 -11 -8 -5 6 3 10 9 15 12 12 3 -3 0
-11 -7 -18z m224 -43 c16 -35 14 -57 -4 -38 -12 12 -32 86 -21 79 4 -2 15 -21
25 -41z m-198 -186 c-3 -8 -6 -5 -6 6 -1 11 2 17 5 13 3 -3 4 -12 1 -19z m-16
-59 c-15 -44 -13 -59 4 -29 8 14 14 20 15 13 0 -22 -12 -43 -27 -43 -9 0 -13
-6 -10 -14 3 -7 -5 -31 -19 -52 -31 -52 -30 -33 6 73 17 48 30 90 30 92 0 2 3
2 6 -2 4 -3 1 -20 -5 -38z m-478 -702 c-33 -54 -37 -58 -29 -25 13 57 25 78
40 72 13 -5 11 -13 -11 -47z"/>
<path d="M1440 3730 c-8 -5 -10 -10 -5 -10 6 0 17 5 25 10 8 5 11 10 5 10 -5
0 -17 -5 -25 -10z"/>
<path d="M1027 3713 c-2 -5 -7 -20 -11 -35 -13 -55 -109 -136 -163 -139 -12 0
-13 -2 -5 -6 31 -12 107 20 145 63 21 23 39 45 38 48 0 3 4 19 9 36 8 27 -2
52 -13 33z"/>
<path d="M1300 3690 c12 -9 9 -10 -15 -6 -22 5 -26 4 -15 -4 10 -6 11 -10 3
-10 -7 0 -13 -4 -13 -10 0 -12 57 12 59 25 1 6 -6 11 -16 13 -15 3 -16 1 -3
-8z"/>
<path d="M1396 3673 c-6 -14 -5 -15 5 -6 7 7 10 15 7 18 -3 3 -9 -2 -12 -12z"/>
<path d="M3242 3590 c0 -14 2 -19 5 -12 2 6 2 18 0 25 -3 6 -5 1 -5 -13z"/>
<path d="M952 3490 c-84 -85 -111 -122 -111 -150 0 -9 6 -4 14 10 16 28 21 9
5 -21 -6 -10 -9 -19 -7 -19 3 0 21 29 42 64 35 60 135 172 135 151 0 -6 -10
-21 -23 -35 -13 -14 -26 -33 -30 -43 -4 -11 -12 -15 -18 -11 -7 4 -9 3 -5 -4
3 -6 -12 -31 -34 -57 -48 -55 -52 -70 -8 -29 17 16 29 25 26 19 -62 -127 -122
-255 -130 -274 -19 -48 -37 -136 -37 -176 1 -37 2 -35 13 20 7 33 20 75 30 93
10 19 15 41 11 50 -3 9 -3 13 0 10 4 -4 49 77 101 180 51 103 97 192 102 198
15 17 23 68 15 90 -7 17 -18 8 -91 -66z"/>
<path d="M3378 3557 c17 -20 25 -194 13 -261 -8 -43 -21 -71 -48 -104 -31 -38
-33 -43 -12 -32 71 38 93 128 78 316 -6 74 -13 94 -31 94 -7 0 -7 -4 0 -13z"/>
<path d="M925 3530 c-3 -6 1 -7 9 -4 18 7 21 14 7 14 -6 0 -13 -4 -16 -10z"/>
<path d="M3830 3344 c17 -15 33 -24 36 -21 5 5 -49 47 -61 47 -4 0 8 -12 25
-26z"/>
<path d="M3900 3273 c18 -24 35 -43 37 -43 7 0 -35 56 -54 71 -9 8 -2 -5 17
-28z"/>
<path d="M3821 3240 c0 -8 4 -24 9 -35 5 -13 9 -14 9 -5 0 8 -4 24 -9 35 -5
13 -9 14 -9 5z"/>
<path d="M906 3036 c-20 -18 -36 -38 -36 -45 0 -17 3 -15 43 34 45 53 42 58
-7 11z"/>
<path d="M3809 1483 c23 -35 44 -63 47 -63 9 0 -38 74 -64 100 -15 16 -9 1 17
-37z"/>
<path d="M3151 1414 c0 -11 3 -14 6 -6 3 7 2 16 -1 19 -3 4 -6 -2 -5 -13z"/>
<path d="M3466 1397 c3 -10 9 -15 12 -12 3 3 0 11 -7 18 -10 9 -11 8 -5 -6z"/>
<path d="M3875 1386 c10 -14 19 -26 22 -26 7 0 -17 39 -28 46 -6 3 -3 -5 6
-20z"/>
<path d="M3111 1284 c0 -11 3 -14 6 -6 3 7 2 16 -1 19 -3 4 -6 -2 -5 -13z"/>
<path d="M2791 1144 c-12 -14 -20 -28 -17 -31 3 -3 16 5 29 19 13 14 30 28 38
31 9 4 7 5 -6 6 -11 0 -31 -11 -44 -25z"/>
<path d="M806 1071 c-9 -16 -24 -35 -33 -40 -10 -6 -13 -11 -6 -11 14 0 68 68
60 76 -3 3 -13 -8 -21 -25z"/>
<path d="M889 1083 c-13 -16 -12 -17 4 -4 9 7 17 15 17 17 0 8 -8 3 -21 -13z"/>
<path d="M2730 1080 c-9 -6 -10 -10 -3 -10 6 0 15 5 18 10 8 12 4 12 -15 0z"/>
<path d="M510 1035 c-13 -14 -19 -25 -13 -25 12 0 48 38 41 45 -2 3 -15 -6
-28 -20z"/>
<path d="M466 973 c-6 -14 -5 -15 5 -6 7 7 10 15 7 18 -3 3 -9 -2 -12 -12z"/>
<path d="M691 933 c-22 -26 -38 -50 -35 -53 6 -5 58 52 75 83 17 30 2 19 -40
-30z"/>
<path d="M740 909 c-45 -51 -97 -145 -66 -119 9 6 18 20 21 30 4 12 12 17 23
14 13 -5 14 -4 3 4 -11 8 -9 15 10 41 12 17 23 31 24 31 1 0 2 -13 3 -29 1
-26 27 -91 36 -91 3 0 -3 18 -11 40 -13 32 -14 50 -6 85 6 25 10 45 9 45 0 0
-21 -23 -46 -51z"/>
<path d="M426 935 c-3 -8 -2 -15 3 -15 5 0 14 7 21 15 10 12 10 15 -3 15 -8 0
-17 -7 -21 -15z"/>
<path d="M4256 771 c-49 -147 -80 -209 -172 -347 -41 -61 -74 -116 -74 -121 0
-5 39 -49 86 -98 87 -91 114 -133 114 -180 0 -14 5 -25 10 -25 20 0 15 54 -8
93 -15 25 -15 29 -2 38 13 9 13 10 -1 6 -11 -4 -23 7 -38 34 -24 43 -49 64
-38 33 5 -12 -2 -8 -18 11 -14 17 -25 35 -25 42 0 6 -6 13 -12 16 -9 3 -7 11
8 28 12 13 19 31 17 39 -3 11 -2 12 5 2 5 -7 16 -10 26 -6 12 5 15 14 11 33
-6 28 17 98 31 93 4 -1 8 9 9 24 0 14 5 28 10 32 25 18 58 63 59 80 1 25 56
93 69 85 6 -4 7 -1 3 6 -5 7 -14 10 -22 7 -8 -3 -14 1 -14 10 0 8 5 12 10 9 6
-3 10 -1 10 6 0 8 3 9 13 0 11 -8 18 -7 31 7 9 10 13 22 9 26 -4 4 0 4 9 1 15
-6 15 -8 -3 -26 -10 -10 -19 -24 -19 -30 0 -6 7 -3 16 5 21 22 23 21 17 -15
-2 -18 0 -35 6 -38 6 -4 5 -56 -5 -156 -24 -259 -32 -319 -49 -404 -15 -73
-15 -104 -1 -90 22 22 103 646 86 663 -14 14 -13 49 3 43 6 -2 11 -9 10 -15
-2 -6 4 -9 13 -5 12 5 12 8 -6 20 -11 8 -20 20 -20 27 0 12 -48 41 -62 38 -5
-1 -7 2 -5 7 1 5 -10 22 -25 39 -14 16 -28 39 -30 49 -2 11 -21 -32 -42 -96z
m76 -13 c-8 -8 -9 -4 -5 13 4 13 8 18 11 10 2 -7 -1 -18 -6 -23z m-247 -418
c3 -5 1 -10 -4 -10 -6 0 -11 5 -11 10 0 6 2 10 4 10 3 0 8 -4 11 -10z m-25
-40 c0 -5 -2 -10 -4 -10 -3 0 -8 5 -11 10 -3 6 -1 10 4 10 6 0 11 -4 11 -10z"/>
<path d="M368 863 c-23 -28 -30 -43 -19 -43 6 0 11 6 11 14 0 7 10 21 23 29
12 9 17 16 11 16 -6 1 -18 -7 -26 -16z"/>
<path d="M593 808 c-21 -27 -34 -58 -23 -58 5 0 10 7 10 15 0 8 10 23 22 35
12 11 17 20 11 20 -6 0 -15 -6 -20 -12z"/>
<path d="M195 734 c-9 -15 -12 -23 -6 -20 11 7 35 46 28 46 -3 0 -12 -12 -22
-26z"/>
<path d="M266 735 c-3 -8 -1 -15 3 -15 5 0 11 7 15 15 3 8 1 15 -3 15 -5 0
-11 -7 -15 -15z"/>
<path d="M840 713 c0 -7 11 -25 25 -40 32 -36 32 -17 0 22 -14 17 -25 25 -25
18z"/>
<path d="M4490 653 c0 -10 103 -123 108 -118 3 3 -20 32 -51 64 -32 33 -57 57
-57 54z"/>
<path d="M143 568 c-15 -20 -25 -38 -20 -38 3 0 12 11 21 25 17 26 16 35 -1
13z"/>
<path d="M412 533 c-14 -5 -52 -75 -52 -95 0 -7 6 -4 13 7 24 36 59 95 55 94
-2 0 -9 -3 -16 -6z"/>
<path d="M2788 520 c-9 -6 -26 -25 -37 -43 -17 -28 -19 -39 -10 -70 10 -36 25
-54 36 -43 3 3 1 11 -5 18 -5 7 -12 22 -13 33 -4 23 35 95 51 95 5 0 10 5 10
10 0 12 -10 12 -32 0z"/>
<path d="M725 455 c-16 -14 -25 -25 -20 -25 6 0 24 11 40 25 17 13 26 24 20
24 -5 0 -23 -11 -40 -24z"/>
<path d="M2229 404 c18 -21 50 -57 70 -79 21 -22 40 -46 44 -52 13 -21 -12
-54 -111 -148 -84 -81 -94 -93 -84 -110 11 -19 11 -19 12 -2 0 16 5 17 33 12
17 -4 34 -11 35 -16 5 -12 32 -12 32 0 0 14 -23 29 -53 33 l-27 3 43 47 c24
27 46 48 50 48 22 0 97 100 97 130 0 13 -130 149 -155 163 -13 7 -9 -3 14 -29z"/>
<path d="M602 329 c-15 -39 -22 -141 -12 -179 6 -28 8 -18 9 52 1 48 6 99 11
114 6 15 8 29 6 32 -3 3 -9 -6 -14 -19z"/>
<path d="M2208 313 c38 -32 32 -85 -13 -130 -28 -28 -30 -33 -12 -27 12 3 32
16 45 27 43 39 23 147 -27 147 -8 0 -5 -7 7 -17z"/>
<path d="M290 304 c0 -8 5 -12 10 -9 6 3 10 10 10 16 0 5 -4 9 -10 9 -5 0 -10
-7 -10 -16z"/>
<path d="M4102 261 c1 -14 10 -27 18 -29 13 -5 13 -3 0 13 -8 10 -13 20 -12
22 2 3 1 8 -3 11 -4 4 -5 -4 -3 -17z"/>
</g>
</svg>
