<?xml version="1.0" standalone="no"?>
<!DOCTYPE svg PUBLIC "-//W3C//DTD SVG 20010904//EN"
 "http://www.w3.org/TR/2001/REC-SVG-20010904/DTD/svg10.dtd">
<svg version="1.0" xmlns="http://www.w3.org/2000/svg"
 width="700.000000pt" height="700.000000pt" viewBox="0 0 700.000000 700.000000"
 preserveAspectRatio="xMidYMid meet">
<metadata>
Created by potrace 1.14, written by Peter Selinger 2001-2017
</metadata>
<g transform="translate(0.000000,700.000000) scale(0.100000,-0.100000)"
fill="#000000" stroke="none">
<path d="M3520 6620 c-42 -11 -134 -26 -210 -35 -124 -14 -199 -27 -280 -46
-136 -32 -199 -45 -278 -53 -103 -12 -128 -18 -179 -42 -28 -14 -75 -45 -103
-71 -52 -46 -120 -75 -211 -88 -24 -3 -51 -8 -59 -10 -8 -2 -40 -7 -70 -10
-176 -20 -331 -119 -438 -280 -47 -68 -79 -97 -186 -165 -55 -35 -85 -69 -49
-56 55 21 337 202 411 264 48 40 99 80 114 90 16 9 28 22 28 27 1 13 83 65
129 81 20 7 89 23 154 35 94 18 122 21 135 11 40 -28 71 -41 110 -45 23 -3 42
-1 42 4 0 5 -7 10 -15 10 -8 1 -19 3 -25 4 -5 1 -20 3 -32 4 l-23 2 25 20 c14
11 47 39 74 62 27 23 58 45 68 49 27 11 14 26 -19 22 -16 -2 -22 -1 -15 2 6 3
12 10 12 15 0 6 -4 8 -9 4 -5 -3 -12 -1 -15 4 -7 11 28 21 77 21 39 0 51 -18
17 -27 -32 -9 -13 -22 25 -17 36 4 159 48 179 63 12 8 104 38 146 46 92 19
132 22 330 30 301 11 297 11 380 -27 94 -44 133 -57 190 -62 99 -10 148 -17
207 -29 34 -8 60 -10 57 -6 -8 13 -132 47 -214 59 -86 13 -210 49 -210 62 0 4
46 8 103 8 106 0 161 14 96 24 -19 3 -70 7 -114 10 -84 6 -116 11 -178 27 -57
15 -137 19 -177 9z m103 -19 c5 0 6 -4 3 -9 -7 -11 -126 -15 -126 -3 0 13 69
20 123 12z m-1048 -221 c-10 -11 -22 -20 -28 -20 -5 0 1 9 14 20 31 25 37 25
14 0z m-574 -187 c-18 -34 -223 -218 -269 -242 -54 -29 -38 20 30 89 28 29 64
57 80 62 15 6 28 14 28 20 0 5 -6 6 -12 2 -9 -5 -10 -4 -3 3 6 6 26 16 45 22
19 6 49 22 65 36 35 29 49 32 36 8z m-51 -1 c0 -13 -12 -22 -22 -16 -10 6 -1
24 13 24 5 0 9 -4 9 -8z"/>
<path d="M3173 6492 c-13 -2 -23 -7 -23 -12 0 -5 10 -7 23 -5 12 3 48 6 79 7
32 2 58 7 58 11 0 8 -88 7 -137 -1z"/>
<path d="M3490 6386 c0 -2 45 -34 100 -71 104 -70 323 -283 354 -344 9 -17 20
-31 24 -31 13 0 99 -82 116 -111 9 -14 13 -29 9 -32 -11 -12 -116 -7 -168 7
-118 34 -155 50 -155 71 0 17 -2 17 -10 5 -16 -25 -12 -50 9 -50 26 0 51 -10
51 -21 0 -16 -78 -10 -88 7 -8 13 -13 12 -39 -10 -21 -17 -38 -24 -56 -21 -44
8 -39 -12 8 -34 74 -35 154 -52 245 -52 91 -1 128 9 159 40 16 16 30 20 61 17
48 -5 50 4 12 53 -67 86 -65 149 4 95 75 -59 84 -65 84 -57 0 5 -27 35 -60 68
-46 45 -57 62 -48 72 13 16 -14 18 -43 3 -21 -12 -26 -31 -6 -28 16 4 16 -24
0 -29 -8 -3 -21 14 -32 39 -20 47 -73 121 -130 182 -55 59 -201 166 -226 166
-13 0 -28 7 -35 15 -17 20 -140 66 -140 51z m438 -605 c10 -6 4 -10 -18 -15
-46 -9 -62 -8 -55 4 4 6 11 8 16 5 5 -4 9 -1 9 4 0 13 30 14 48 2z"/>
<path d="M4116 6334 c71 -58 88 -76 130 -130 13 -17 54 -53 90 -79 43 -32 61
-51 53 -56 -7 -4 -22 -4 -33 1 -44 17 -253 121 -304 150 -30 18 -56 29 -59 26
-13 -12 52 -119 86 -142 42 -27 119 -56 131 -49 5 3 13 -1 17 -10 9 -16 97
-50 154 -60 19 -3 51 -14 71 -24 20 -10 42 -14 50 -10 7 4 38 6 68 4 30 -2 71
-4 90 -5 l35 -1 -35 -19 -35 -20 60 7 c70 7 73 8 59 31 -18 28 -54 40 -159 51
-89 9 -103 13 -123 36 -33 39 -20 48 56 42 41 -4 71 -2 79 5 8 6 38 9 73 6 46
-3 60 -1 60 9 0 7 -11 18 -24 23 -13 5 -61 40 -106 79 -54 47 -95 74 -123 82
-23 6 -55 19 -72 29 -16 10 -48 21 -70 24 -22 4 -86 18 -143 31 -151 36 -156
34 -76 -31z m112 1 c161 -33 422 -164 422 -210 0 -16 -13 -15 -127 9 -35 7
-63 9 -63 4 0 -5 -7 -2 -16 7 -9 9 -44 30 -78 47 -111 55 -253 158 -218 158 6
0 42 -7 80 -15z"/>
<path d="M2755 6355 c-38 -11 -81 -27 -95 -34 -44 -25 -4 -23 77 4 43 15 87
29 97 31 11 2 24 8 30 14 15 15 -27 9 -109 -15z"/>
<path d="M2956 6365 c-10 -8 -24 -12 -30 -8 -8 4 -8 3 0 -6 13 -14 69 3 59 19
-8 12 -6 12 -29 -5z"/>
<path d="M3136 6352 c-3 -5 1 -9 9 -9 8 0 12 4 9 9 -3 4 -7 8 -9 8 -2 0 -6 -4
-9 -8z"/>
<path d="M3300 6315 c7 -8 17 -15 22 -15 6 0 5 7 -2 15 -7 8 -17 15 -22 15 -6
0 -5 -7 2 -15z"/>
<path d="M2839 6300 c-18 -11 -52 -17 -128 -25 -30 -3 -56 -7 -57 -8 -1 -1 -5
-12 -8 -24 -5 -16 -3 -23 6 -23 16 0 248 77 256 85 9 9 -52 5 -69 -5z"/>
<path d="M3480 6304 c0 -3 9 -17 20 -31 12 -15 20 -20 20 -12 0 8 -9 22 -20
32 -11 9 -20 14 -20 11z"/>
<path d="M3278 6223 c6 -2 18 -2 25 0 6 3 1 5 -13 5 -14 0 -19 -2 -12 -5z"/>
<path d="M1791 6183 c-29 -19 -51 -36 -48 -39 2 -3 27 10 53 27 61 40 58 38
53 43 -2 2 -28 -12 -58 -31z"/>
<path d="M3035 6212 c-145 -12 -278 -41 -373 -82 -52 -23 -75 -48 -26 -29 30
11 165 46 204 53 14 2 45 9 69 16 90 24 328 17 356 -11 5 -5 21 -9 35 -9 14 0
31 -5 37 -11 7 -7 34 -20 60 -29 181 -66 277 -100 284 -100 5 0 9 6 9 13 0 11
-131 67 -156 67 -7 0 -14 9 -17 20 -5 19 -21 24 -75 22 -20 -1 -22 1 -12 13
11 13 6 15 -28 15 -31 0 -40 3 -36 14 3 8 -1 13 -13 12 -10 0 -67 5 -128 12
-140 17 -154 18 -190 14z"/>
<path d="M1689 6103 l-24 -28 28 24 c25 23 32 31 24 31 -2 0 -14 -12 -28 -27z"/>
<path d="M2790 6095 c0 -25 124 -144 208 -199 48 -32 87 -50 115 -53 52 -6 35
9 -38 33 -61 20 -153 86 -165 120 -6 14 -18 24 -29 24 -11 0 -28 14 -40 34
-29 46 -51 64 -51 41z"/>
<path d="M2060 6048 c-29 -29 -72 -82 -96 -118 -23 -36 -62 -92 -88 -124 -25
-32 -43 -63 -40 -68 3 -5 0 -15 -6 -23 -9 -11 -9 -15 -1 -15 6 0 17 12 24 28
6 15 17 30 24 35 13 8 97 132 125 184 18 33 38 58 91 115 25 28 32 38 24 38
-2 0 -28 -24 -57 -52z"/>
<path d="M3765 6060 c3 -5 11 -10 16 -10 6 0 7 5 4 10 -3 6 -11 10 -16 10 -6
0 -7 -4 -4 -10z"/>
<path d="M1640 6041 c-12 -24 -13 -34 -1 -27 9 6 22 46 15 46 -2 0 -8 -9 -14
-19z"/>
<path d="M3820 6039 c0 -12 48 -34 57 -25 4 3 2 11 -3 16 -14 14 -54 21 -54 9z"/>
<path d="M3765 6010 c16 -10 32 -17 35 -14 7 8 -31 34 -49 34 -10 0 -4 -8 14
-20z"/>
<path d="M2132 5980 c-28 -22 -70 -66 -93 -97 -48 -65 -150 -193 -190 -238
-73 -82 -119 -136 -119 -141 0 -13 59 31 73 55 8 14 42 53 74 86 32 33 87 94
123 135 36 41 67 77 70 80 27 27 122 152 118 156 -3 2 -28 -13 -56 -36z"/>
<path d="M4822 5990 c7 -11 19 -22 28 -25 8 -4 4 5 -9 19 -29 31 -36 33 -19 6z"/>
<path d="M2492 5956 c-12 -27 -20 -51 -18 -53 7 -8 47 70 43 86 -2 9 -12 -4
-25 -33z"/>
<path d="M3285 5990 c3 -5 11 -10 16 -10 6 0 7 5 4 10 -3 6 -11 10 -16 10 -6
0 -7 -4 -4 -10z"/>
<path d="M2555 5933 c3 -46 0 -50 -44 -90 -25 -23 -58 -45 -73 -48 -15 -4 -31
-11 -34 -16 -16 -26 5 -341 25 -377 4 -8 31 37 68 115 61 126 98 233 106 305
6 51 -10 122 -32 142 -18 16 -18 15 -16 -31z m-90 -153 c-3 -5 -11 -10 -16
-10 -6 0 -7 5 -4 10 3 6 11 10 16 10 6 0 7 -4 4 -10z"/>
<path d="M3354 5955 c11 -8 24 -15 30 -15 5 0 1 7 -10 15 -10 8 -23 14 -29 14
-5 0 -1 -6 9 -14z"/>
<path d="M1880 5910 c-19 -17 -55 -42 -80 -57 -87 -51 -270 -176 -270 -183 0
-4 10 -8 23 -8 12 1 38 -2 56 -4 57 -8 171 28 171 54 0 6 24 43 54 82 62 82
102 146 89 146 -4 0 -24 -14 -43 -30z"/>
<path d="M4200 5917 c63 -42 173 -75 155 -47 -3 6 -14 10 -23 10 -9 0 -46 14
-80 30 -76 36 -100 39 -52 7z"/>
<path d="M4528 5902 c-16 -2 -28 -7 -28 -11 0 -13 29 -46 30 -33 0 27 43 9 93
-40 70 -71 200 -242 210 -276 5 -21 2 -31 -14 -44 l-21 -18 23 -9 c24 -10 24
-10 -3 -10 -34 -1 -46 17 -87 123 -34 88 -143 243 -178 252 -11 3 -31 0 -43
-6 -12 -6 -28 -9 -36 -6 -28 11 -13 -23 19 -43 17 -11 49 -37 69 -58 64 -65
172 -262 155 -279 -6 -6 -33 -12 -59 -13 -11 -1 -15 -6 -12 -15 9 -23 31 -26
67 -11 53 22 164 25 222 7 l50 -16 -35 -5 c-45 -8 -31 -16 50 -31 36 -6 91
-24 123 -40 57 -28 58 -28 51 -7 -3 12 -25 58 -48 103 -24 44 -46 95 -49 112
-11 54 -85 235 -114 277 -37 55 -40 29 -5 -42 17 -32 37 -82 46 -112 22 -74 4
-57 -83 82 -65 104 -86 132 -126 165 -21 18 -19 5 9 -53 14 -27 23 -51 21 -53
-2 -2 -18 11 -35 30 l-30 33 16 -45 c10 -25 21 -50 25 -55 11 -15 19 -65 10
-65 -18 0 -42 40 -46 75 -6 47 -10 51 -29 36 -20 -17 -54 2 -62 34 -9 35 -94
74 -146 67z m429 -309 c65 -64 192 -247 180 -260 -3 -3 -16 5 -29 17 -13 13
-60 40 -105 62 -80 38 -82 40 -76 68 7 37 -12 85 -38 96 -18 8 -18 11 -4 32
21 30 28 28 72 -15z"/>
<path d="M3258 5881 c-9 -15 -23 -21 -49 -21 -46 0 -58 -23 -25 -45 16 -10 58
-17 127 -20 57 -3 96 -2 87 3 -10 4 -32 21 -50 37 -79 71 -75 69 -90 46z"/>
<path d="M2846 5848 c15 -44 28 -95 39 -158 7 -39 21 -60 41 -60 18 0 18 -1
-5 51 -23 53 -30 110 -14 116 6 2 14 -10 18 -26 4 -17 10 -31 15 -31 5 0 14
-17 21 -37 6 -20 25 -61 41 -91 17 -29 28 -56 25 -58 -3 -3 -27 11 -55 30 -27
20 -56 36 -63 36 -8 0 17 -21 55 -45 38 -25 75 -45 81 -45 15 0 45 -43 45 -64
0 -30 -117 8 -185 60 -68 51 -178 224 -188 293 -7 50 -24 31 -24 -26 0 -35 -7
-70 -17 -88 -9 -16 -16 -38 -16 -48 0 -11 -8 -31 -18 -45 -10 -15 -38 -67 -62
-115 l-43 -88 12 -67 c21 -130 41 -201 86 -309 49 -121 49 -121 26 -93 -25 29
-111 201 -111 221 0 8 -14 34 -30 58 -17 24 -28 47 -25 50 4 3 11 -1 16 -9 8
-11 9 -10 4 7 -3 13 -6 41 -7 63 0 22 -4 40 -8 40 -10 0 -28 -67 -34 -131 -7
-66 -33 -144 -82 -244 -43 -90 -132 -234 -181 -294 l-36 -43 -14 26 c-14 26
-14 26 -38 9 -23 -17 -37 -51 -15 -38 17 10 11 -18 -10 -50 -11 -16 -20 -36
-20 -43 0 -17 -84 -196 -122 -259 -17 -28 -40 -54 -50 -56 -11 -3 -18 -11 -17
-19 4 -29 -2 -40 -16 -34 -11 4 -21 -7 -35 -37 -43 -91 -205 -285 -300 -357
-75 -58 -159 -141 -191 -191 -40 -63 -45 -116 -16 -198 20 -60 49 -96 43 -54
-4 22 15 76 56 166 30 65 49 87 29 33 -10 -24 -9 -25 9 -14 10 7 22 23 25 37
8 31 37 69 50 64 6 -2 12 8 13 22 1 15 13 41 27 59 14 18 25 36 25 40 0 16
229 337 269 376 13 13 14 13 6 -5 -5 -11 -10 -37 -11 -57 -1 -21 -11 -52 -22
-70 -12 -18 -35 -57 -52 -86 -18 -29 -44 -60 -58 -69 -47 -29 -103 -86 -91
-94 23 -14 -80 -159 -112 -159 -5 0 -9 -6 -9 -13 0 -8 -10 -22 -21 -33 -26
-24 -64 -107 -85 -188 -11 -43 -14 -83 -10 -135 8 -91 12 -111 43 -185 13 -32
22 -61 19 -64 -11 -10 -86 79 -86 102 0 13 -6 29 -14 35 -9 8 -13 33 -12 82 0
39 -2 76 -6 82 -11 17 -21 -59 -16 -126 3 -51 11 -72 41 -117 38 -58 44 -82
51 -220 3 -77 27 -147 73 -222 30 -49 39 -49 15 0 -17 33 -28 66 -38 112 -15
69 2 257 22 238 2 -3 6 -58 9 -124 3 -65 8 -128 11 -139 14 -45 47 -115 56
-115 5 0 4 9 -2 19 -17 34 -12 61 15 71 33 13 32 24 -1 16 -46 -12 -55 7 -53
103 1 47 6 99 10 116 15 58 24 135 34 295 6 91 15 124 29 101 4 -6 8 -71 9
-144 2 -113 0 -134 -12 -129 -11 4 -13 1 -7 -14 4 -10 17 -43 28 -71 10 -29
24 -55 29 -58 14 -9 11 -82 -7 -123 -10 -24 -11 -33 -3 -24 22 21 28 13 18
-18 -6 -16 -15 -30 -20 -30 -5 0 -9 -5 -9 -11 0 -14 49 -3 70 17 14 12 14 4
-1 -69 -17 -82 -18 -198 -4 -317 12 -101 20 -70 22 88 2 207 6 232 75 469 23
80 41 88 34 14 -5 -50 -5 -50 -35 -181 -11 -47 -23 -98 -27 -115 -10 -47 -15
-343 -6 -349 5 -3 9 36 10 87 0 51 1 99 2 107 1 22 25 -25 69 -139 l39 -99
-247 -245 c-268 -267 -312 -306 -347 -308 -13 -1 -27 -2 -31 -3 -5 -1 -39 -6
-78 -10 -38 -4 -83 -10 -100 -12 -16 -2 -66 -6 -110 -9 -110 -9 -173 -26 -252
-71 -37 -21 -91 -48 -118 -59 -104 -43 -375 -194 -349 -195 6 0 78 34 160 75
82 42 171 82 197 90 27 8 69 30 95 48 86 63 139 80 287 92 109 9 169 16 185
21 9 2 51 6 95 8 l78 5 156 148 c259 246 350 339 357 367 3 14 10 26 14 26 14
0 18 -38 15 -129 -4 -123 -20 -185 -57 -216 -27 -23 -28 -25 -9 -25 25 0 102
68 130 114 23 37 47 128 57 211 11 104 22 135 34 100 14 -40 11 -121 -4 -134
-14 -12 -13 -15 7 -32 19 -16 20 -18 5 -19 -10 0 -18 -4 -18 -9 0 -45 55 -59
66 -16 4 16 13 25 25 25 16 0 19 7 18 53 -1 45 3 60 29 96 17 23 29 47 28 54
-2 6 -6 24 -10 38 -5 19 -1 36 13 60 20 33 25 32 22 -4 -1 -9 7 -29 18 -43 12
-15 21 -32 21 -38 0 -7 18 -32 40 -56 22 -24 47 -64 57 -88 20 -54 11 -112
-43 -267 -46 -130 -51 -155 -31 -155 12 0 11 -13 -9 -82 -29 -104 -61 -255
-68 -333 -4 -33 -9 -71 -11 -85 -2 -14 -7 -45 -10 -70 -3 -25 -8 -52 -10 -60
-2 -8 -11 -62 -20 -120 -8 -58 -17 -116 -20 -129 -2 -14 -9 -61 -16 -105 -6
-45 -15 -103 -20 -131 -5 -27 -12 -77 -15 -110 -2 -33 -7 -78 -9 -100 -2 -22
-7 -92 -11 -155 -3 -63 -7 -132 -9 -153 l-2 -38 46 3 c44 3 47 5 73 53 22 39
28 45 29 28 1 -13 3 -27 4 -33 1 -5 3 -19 4 -30 1 -18 8 -20 85 -20 55 0 87 4
93 13 6 6 11 57 13 112 4 192 5 193 48 154 15 -14 38 -33 51 -44 l25 -20 -22
29 c-12 15 -50 60 -84 99 -35 38 -73 82 -86 96 -46 52 -56 82 -59 186 -1 55
-4 149 -6 208 -3 60 -1 124 4 143 5 19 13 51 18 71 8 29 6 49 -10 92 -33 95
-21 246 37 461 34 124 92 296 115 340 l18 35 1 -58 c0 -38 5 -64 15 -73 8 -9
15 -25 16 -37 0 -12 2 -31 4 -42 2 -11 7 -40 10 -65 3 -25 8 -52 10 -60 2 -8
6 -26 9 -40 31 -170 106 -362 205 -525 65 -107 317 -445 332 -445 12 0 11 2
-53 98 -57 85 -73 121 -32 73 87 -102 173 -197 257 -284 131 -137 199 -257
183 -322 -4 -14 -38 -58 -76 -96 -39 -38 -70 -74 -70 -79 0 -30 66 11 138 85
31 33 50 45 72 45 16 0 31 -3 33 -8 3 -4 -6 -34 -19 -66 -35 -87 -14 -92 34
-9 22 37 52 93 67 123 68 137 139 220 188 220 8 0 18 7 21 15 7 18 -25 165
-36 165 -3 0 -6 -37 -6 -82 1 -82 1 -83 -23 -80 -20 2 -31 -9 -64 -59 -22 -34
-42 -67 -44 -73 -11 -29 -79 -98 -90 -92 -5 3 -12 22 -15 41 -8 43 -22 45 -31
5 -10 -44 -22 -37 -39 24 -16 53 -71 135 -142 211 -20 22 -78 83 -128 136
-243 255 -373 467 -478 772 -32 94 -33 133 -2 89 15 -22 16 -22 41 25 32 60
29 79 -36 216 -28 59 -51 116 -51 127 0 25 18 36 26 16 3 -9 10 -14 14 -11 14
9 170 -76 249 -135 43 -33 112 -75 153 -93 42 -19 108 -54 148 -77 47 -28 109
-52 182 -71 96 -26 117 -29 162 -20 28 5 73 13 99 16 35 5 59 16 85 39 20 18
51 41 69 50 35 18 70 64 39 53 -9 -4 -16 -2 -16 3 0 6 14 10 30 10 18 0 33 6
36 15 4 8 13 15 21 15 7 0 25 12 38 26 17 18 30 24 44 19 16 -5 21 -2 21 13 0
27 41 62 66 56 15 -4 27 6 52 44 18 28 72 93 122 145 49 51 112 128 140 169
77 114 120 145 120 86 0 -17 -2 -18 -15 -8 -21 17 -29 7 -16 -18 8 -15 8 -29
1 -48 -8 -19 -8 -30 0 -38 13 -13 13 -86 0 -86 -5 0 -10 11 -10 24 0 14 -4 28
-10 31 -6 4 -10 -5 -10 -21 0 -15 -6 -35 -13 -43 -18 -23 -48 -118 -62 -199
-5 -30 -4 -32 14 -23 18 10 19 8 11 -22 -14 -52 -18 -107 -9 -107 8 0 27 58
50 155 6 28 16 54 20 60 12 12 11 -30 -1 -80 -6 -22 -12 -56 -15 -75 -10 -67
-17 -85 -40 -116 -14 -18 -27 -46 -30 -64 -3 -18 -18 -72 -34 -120 -17 -53
-25 -92 -19 -98 11 -11 -128 -222 -190 -286 -60 -62 -141 -120 -284 -202 -115
-67 -148 -90 -148 -106 0 -15 21 -9 53 16 18 13 68 46 112 74 274 169 300 188
410 297 233 228 339 388 420 630 6 19 7 19 17 2 15 -27 1 -158 -23 -226 -11
-31 -40 -111 -65 -179 -89 -252 -206 -495 -310 -648 -80 -117 -94 -146 -101
-202 -12 -106 -55 -182 -175 -313 -43 -46 -68 -81 -68 -96 0 -30 -1 -34 -11
-60 -8 -23 -8 -23 86 -23 85 0 96 2 116 23 34 36 47 59 68 122 23 73 41 114
121 280 99 206 139 294 146 321 3 13 15 30 25 38 11 8 28 42 39 82 10 38 30
94 43 124 22 50 30 75 41 135 2 11 9 40 16 65 7 25 14 52 15 60 2 8 19 80 39
160 19 80 37 156 39 170 3 14 8 43 12 65 4 22 9 48 11 57 5 28 14 137 19 227
3 46 7 93 11 103 3 11 1 32 -6 48 -6 16 -10 37 -8 47 2 13 10 5 26 -28 18 -37
20 -52 13 -72 -8 -21 -7 -30 6 -43 14 -14 18 -14 22 -3 10 33 59 39 87 11 17
-16 22 -18 52 -21 7 0 10 -5 7 -11 -3 -5 0 -10 8 -10 22 0 122 111 151 167 67
134 87 290 58 455 -33 185 -19 251 95 447 89 153 132 278 128 376 -3 79 -30
189 -51 206 -10 8 -18 8 -27 0 -10 -8 -19 -7 -33 4 -11 8 -14 15 -6 15 24 0
11 36 -39 103 -47 64 -75 85 -50 39 16 -30 13 -87 -5 -130 -19 -43 -17 -45
-43 73 -33 150 -34 158 -16 152 9 -4 15 -1 15 7 0 8 -4 16 -8 18 -12 4 -96
117 -115 154 -21 41 -68 94 -84 94 -7 0 -13 6 -13 13 0 7 -18 49 -39 94 -93
193 -105 293 -16 134 11 -20 44 -75 73 -122 28 -48 52 -91 52 -97 0 -6 17 -32
38 -59 20 -26 46 -61 57 -78 10 -16 35 -48 56 -70 20 -22 66 -77 102 -121 101
-126 146 -156 246 -168 17 -2 33 0 35 3 3 4 -7 8 -22 9 -15 1 -50 9 -79 17
-57 17 -88 49 -116 121 l-15 40 48 73 c85 128 128 281 125 443 -2 71 -18 139
-30 126 -2 -2 -6 -51 -10 -108 -10 -194 -22 -262 -56 -340 -21 -47 -67 -102
-79 -95 -4 3 3 42 17 87 54 182 63 229 59 323 -2 49 -7 98 -11 107 -11 27 -24
11 -16 -20 12 -42 14 -132 3 -132 -6 0 -15 23 -22 50 -7 28 -23 66 -36 85 -13
19 -30 57 -38 83 -8 27 -21 63 -30 80 -20 38 -20 42 -2 42 8 0 33 -21 55 -47
23 -27 41 -43 41 -38 0 13 -25 49 -72 107 -71 85 -89 149 -89 318 0 188 -29
190 -35 3 -1 -63 -6 -118 -9 -121 -8 -8 -23 16 -31 48 -4 14 -37 72 -74 130
-37 58 -78 125 -91 150 -12 25 -33 59 -45 75 -12 17 -31 49 -43 72 -16 33 -25
40 -41 36 -11 -3 -20 -10 -20 -15 0 -5 -10 -17 -21 -27 -21 -17 -21 -18 -4
-94 21 -93 17 -111 -16 -72 -13 16 -37 41 -52 56 -23 21 -25 27 -13 32 12 5
13 13 6 38 -14 47 -25 54 -49 30 -12 -12 -25 -21 -31 -21 -17 0 -11 -14 23
-50 36 -39 88 -115 138 -205 81 -144 158 -265 163 -257 3 5 27 -1 53 -14 26
-13 64 -24 86 -24 l40 0 -39 38 c-44 43 -178 231 -217 307 -34 64 -57 131 -57
164 0 28 11 13 140 -193 30 -49 65 -101 78 -116 12 -15 22 -35 22 -43 0 -9 8
-22 19 -29 10 -7 32 -34 49 -59 17 -25 38 -52 47 -59 21 -18 19 -38 -6 -42
-19 -3 -19 -4 6 -38 48 -63 127 -242 113 -256 -2 -2 -25 33 -50 79 -26 45 -60
100 -77 121 -18 22 -29 46 -26 54 4 10 1 12 -12 7 -49 -20 -62 -17 -137 39
-60 44 -86 73 -133 145 -32 50 -63 90 -70 91 -17 0 -88 96 -113 152 -11 25
-27 48 -35 52 -34 13 -10 -32 109 -198 54 -77 74 -115 87 -165 30 -119 19
-322 -19 -353 -13 -11 -14 -10 -8 10 14 43 -30 3 -76 -70 -29 -45 -49 -68 -62
-68 -17 0 -16 4 9 30 29 30 31 54 2 25 -20 -19 -50 -19 -93 1 -31 15 -47 44
-24 44 16 0 61 87 76 147 8 32 19 66 25 77 10 17 8 85 -7 209 -9 73 -22 46
-21 -45 0 -46 -3 -110 -8 -143 l-8 -60 -18 40 c-24 53 -24 84 1 93 18 7 19 10
6 27 -8 11 -19 21 -25 21 -24 3 -26 5 -14 12 10 6 9 19 -2 61 -15 59 -27 79
-79 136 -20 22 -45 57 -56 77 -25 47 -38 55 -32 20 4 -22 2 -25 -9 -14 -22 20
-27 14 -40 -43 -15 -66 -35 -88 -24 -27 7 44 -6 62 -30 42 -12 -10 -18 -6 -30
23 -29 71 -36 123 -20 172 7 23 -17 42 -66 50 -53 10 -109 44 -175 108 -77 76
-105 156 -39 113 33 -22 32 -14 -6 29 -33 37 -48 42 -78 23 -21 -13 -55 -4
-49 14 4 10 108 41 186 54 24 4 32 2 32 -9 0 -18 116 -137 134 -137 19 0 33
23 18 28 -20 6 -13 22 13 32 38 15 30 26 -16 22 -50 -5 -76 14 -33 24 16 3 34
13 40 20 9 12 18 8 50 -22 22 -20 58 -52 82 -72 56 -46 69 -69 49 -89 -12 -13
-21 -13 -51 -3 -20 6 -49 22 -64 34 -15 12 -33 21 -39 20 -7 -1 -19 -2 -25 -3
-23 -3 39 -48 89 -66 103 -36 110 -41 116 -82 13 -74 9 -93 -17 -93 -13 0 -29
7 -36 15 -16 19 -22 19 -49 -4 l-22 -19 23 -8 c13 -4 28 -14 35 -23 11 -15 12
-14 13 2 0 17 5 20 35 20 37 0 45 -4 45 -23 0 -11 5 -20 10 -20 6 0 10 11 10
25 0 14 4 25 9 25 11 0 71 -70 71 -83 0 -4 8 -27 19 -50 10 -23 29 -68 41 -99
23 -57 40 -74 40 -42 0 33 -51 156 -91 219 -23 36 -40 67 -38 69 15 13 51 26
59 21 5 -3 11 -1 14 4 10 16 -23 20 -56 7 -57 -24 -85 -1 -87 69 0 34 -21 148
-31 179 -9 26 -8 27 8 15 9 -8 28 -24 41 -36 29 -28 51 -31 27 -4 -10 11 -15
24 -12 30 4 6 -9 17 -29 25 -19 8 -35 19 -35 23 0 4 -11 13 -25 20 -28 12 -31
7 -11 -20 7 -9 11 -28 8 -42 -4 -25 -5 -25 -23 -9 -11 9 -19 25 -19 34 0 18
-30 50 -47 50 -11 0 -77 70 -71 75 2 2 21 6 43 10 80 13 91 16 120 25 23 8 11
9 -50 5 -67 -4 -138 -16 -148 -26 -1 -1 -13 3 -25 10 -21 11 -27 10 -45 -7
-50 -46 -229 -80 -372 -71 -48 4 -96 -2 -91 -9 3 -5 31 -14 63 -21 85 -19 124
-63 125 -140 0 -46 -22 -111 -38 -111 -12 0 -65 40 -100 74 -10 11 -42 34 -71
53 -29 18 -63 47 -75 64 -19 25 -45 37 -165 76 -133 42 -169 61 -125 64 86 8
111 5 160 -17 29 -13 55 -24 58 -24 3 0 38 -21 77 -47 86 -57 98 -63 73 -34
-11 12 -67 53 -125 92 l-106 71 -85 -7 c-183 -17 -241 -11 -334 33 -33 17 -88
53 -121 81 -32 28 -63 51 -67 51 -4 0 0 -19 8 -42z m233 -164 c35 -13 95 -41
132 -63 45 -26 69 -35 69 -26 0 7 -7 21 -16 29 -14 15 -14 16 3 17 10 1 22 1
26 0 4 -1 24 -4 44 -7 58 -9 163 -44 163 -54 0 -10 -26 -16 -158 -35 -83 -12
-92 -24 -19 -24 49 -1 69 -5 73 -15 6 -15 8 -90 4 -161 l-2 -40 -24 50 c-13
28 -24 61 -24 75 -1 42 -15 56 -44 42 l-26 -11 25 -37 c23 -34 32 -64 20 -64
-21 0 -88 45 -97 65 -7 15 -22 25 -43 29 -19 4 -44 15 -57 26 -22 19 -22 21
-5 34 16 12 15 14 -11 19 -18 4 -35 18 -47 40 -11 18 -35 55 -52 82 -37 55
-41 71 -15 60 9 -4 46 -18 81 -31z m-349 -59 c0 -13 -4 -27 -10 -30 -11 -7
-25 39 -15 55 10 16 25 2 25 -25z m1485 14 c-10 -15 -55 -30 -67 -23 -6 4 2
13 18 20 36 16 57 17 49 3z m-1405 -59 c0 -5 -7 -10 -15 -10 -8 0 -15 5 -15
10 0 6 7 10 15 10 8 0 15 -4 15 -10z m-6 -117 c-11 -112 -7 -250 9 -311 20
-75 12 -192 -14 -192 -5 0 -9 15 -10 33 0 17 -2 41 -4 52 -2 11 -7 88 -11 170
-13 269 -9 325 22 325 14 0 15 -11 8 -77z m697 44 c92 -116 159 -210 154 -215
-6 -7 -195 177 -226 221 l-20 27 33 0 c25 0 39 -8 59 -33z m-613 -133 c3 -32
0 -54 -7 -58 -11 -7 -12 -3 -15 59 -1 17 -6 37 -11 44 -4 8 -9 32 -11 55 l-4
41 22 -45 c12 -25 23 -68 26 -96z m850 28 c6 -20 13 -68 17 -107 l6 -70 -20
23 c-34 39 -58 208 -27 196 7 -3 18 -22 24 -42z m-268 -74 c0 -15 8 -31 17
-37 23 -12 11 -25 -16 -16 -12 3 -22 15 -22 26 -1 10 -2 29 -3 42 -1 12 0 26
2 31 7 13 22 -17 22 -46z m89 7 c46 -50 50 -80 11 -80 -20 0 -30 11 -52 55
-31 64 -33 70 -14 70 7 0 32 -20 55 -45z m-361 10 c-3 -3 -9 2 -12 12 -6 14
-5 15 5 6 7 -7 10 -15 7 -18z m619 2 c7 -15 8 -39 2 -68 -4 -24 -8 -48 -9 -53
0 -6 -3 -6 -9 0 -11 11 -24 121 -16 134 10 16 21 12 32 -13z m73 -12 c0 -14
-4 -25 -9 -25 -12 0 -19 21 -13 38 8 21 22 13 22 -13z m-567 -23 c22 -25 47
-105 36 -117 -6 -6 -28 9 -60 40 -68 67 -76 83 -47 94 28 10 52 4 71 -17z
m-399 -43 c-2 -4 6 -15 18 -23 12 -8 59 -50 105 -92 83 -76 133 -118 133 -112
0 2 -45 49 -100 106 -90 93 -117 132 -91 132 5 0 12 -8 16 -19 3 -10 24 -31
45 -45 22 -15 54 -41 71 -59 17 -17 36 -31 41 -29 6 1 15 -1 22 -7 12 -9 111
-64 211 -115 55 -28 62 -36 77 -81 9 -27 19 -67 23 -88 4 -24 15 -43 30 -53
38 -25 54 -12 23 19 -15 15 -29 43 -33 66 -6 36 -5 41 13 41 14 0 29 -20 56
-77 62 -128 168 -282 264 -383 18 -19 35 -45 38 -57 4 -14 12 -20 23 -18 10 2
24 -1 32 -5 11 -8 10 -12 -6 -24 -19 -14 -18 -15 23 -16 23 0 42 -4 42 -10 0
-5 17 -12 38 -16 20 -3 48 -13 60 -21 22 -14 23 -16 7 -33 -15 -17 -15 -19 7
-25 37 -12 138 -96 144 -121 8 -30 30 -37 62 -21 40 19 37 37 -16 93 -27 28
-61 67 -77 88 -19 25 -35 36 -53 36 -24 0 -25 0 -7 20 10 11 25 20 34 21 9 0
-5 7 -30 13 -67 19 -145 64 -206 120 -52 47 -122 136 -107 136 4 0 40 -20 80
-45 39 -25 76 -45 80 -45 22 0 218 -134 266 -182 9 -9 41 -50 70 -90 77 -106
82 -110 156 -110 14 0 22 -6 22 -17 0 -9 4 -21 9 -26 14 -15 30 -91 21 -105
-5 -8 -14 2 -26 27 -12 24 -27 39 -41 41 -25 4 -31 27 -10 35 7 3 5 6 -5 6
-10 1 -19 -7 -20 -16 -2 -30 3 -67 12 -78 44 -55 101 -199 106 -269 2 -34 9
-97 15 -141 9 -69 8 -92 -10 -169 -11 -50 -17 -94 -15 -98 12 -19 28 0 48 57
12 32 27 61 35 63 12 4 13 -32 7 -229 -11 -346 -19 -440 -51 -612 -21 -112
-123 -287 -225 -387 -99 -96 -117 -111 -151 -121 -19 -5 -62 -36 -97 -69 -81
-76 -104 -81 -62 -13 31 51 3 40 -65 -24 -114 -109 -168 -153 -189 -153 -17 0
-18 -2 -6 -10 8 -5 11 -12 8 -15 -12 -13 -173 -56 -224 -60 -65 -6 -303 -9
-414 -5 -90 3 -203 37 -285 85 -47 27 -135 110 -135 126 0 8 -4 8 -14 0 -12
-10 -17 -9 -24 6 -10 18 -12 25 -12 44 0 6 -13 1 -30 -11 -16 -12 -30 -17 -30
-11 0 5 5 13 10 16 6 3 10 21 10 38 l-1 32 -13 -30 c-10 -24 -13 -26 -19 -12
-5 13 -13 16 -30 12 -19 -5 -25 -2 -30 15 -4 17 -10 20 -31 14 -30 -7 -69 14
-101 55 -37 47 -64 86 -81 116 -9 17 -21 33 -25 36 -14 8 -85 196 -145 383
-49 152 -81 293 -69 305 3 2 -1 14 -8 25 -8 12 -15 54 -16 94 -1 41 -11 106
-21 145 -10 40 -21 101 -24 137 -5 50 -11 69 -30 87 -40 37 -64 197 -44 288 5
22 45 100 89 173 43 74 79 137 79 139 0 3 15 23 33 44 78 91 108 147 156 290
55 162 67 205 76 269 3 25 8 52 10 60 2 8 6 37 10 64 3 27 10 56 14 64 5 8 3
33 -4 56 -22 73 23 153 53 94 67 -133 144 -249 158 -236 2 3 -14 40 -37 82
-69 128 -39 105 51 -39 47 -74 92 -137 100 -140 8 -3 40 -29 70 -58 86 -82
119 -103 225 -147 55 -22 106 -43 113 -47 6 -3 12 0 12 7 0 6 -4 8 -10 5 -5
-3 -10 0 -10 9 0 11 9 14 38 10 l37 -4 -41 23 c-23 12 -59 37 -80 56 l-39 33
60 -7 c75 -10 189 -10 279 -1 81 8 98 16 35 16 -32 1 -51 7 -73 26 -15 14 -27
26 -25 28 2 2 23 13 46 25 43 21 74 52 37 36 -10 -4 -39 -12 -64 -18 -25 -6
-50 -18 -57 -26 -10 -14 -13 -14 -30 0 -10 8 -52 36 -93 62 -90 55 -139 99
-169 151 -41 71 10 74 85 4 53 -49 58 -39 7 14 -30 31 -34 40 -23 53 11 13 9
15 -13 15 -17 0 -37 13 -61 42 -20 23 -36 45 -36 49 0 4 -7 9 -15 13 -13 5
-14 2 -4 -17 7 -12 21 -34 32 -49 22 -29 18 -44 -7 -35 -22 9 -45 59 -49 108
-3 24 -16 68 -31 98 -28 58 -33 109 -15 143 9 16 13 18 19 7 5 -7 7 -16 4 -20z
m1296 -10 c0 -5 -7 -9 -15 -9 -8 0 -15 7 -15 15 0 9 6 12 15 9 8 -4 15 -10 15
-15z m-737 -30 c13 -20 0 -92 -16 -86 -15 5 -28 56 -20 84 6 26 21 26 36 2z
m222 -35 c20 -41 27 -122 10 -126 -11 -3 -66 152 -58 165 9 16 28 1 48 -39z
m-95 4 c11 -18 20 -46 20 -61 0 -15 6 -38 14 -50 18 -27 24 -70 11 -76 -6 -3
-14 16 -19 42 -5 30 -13 47 -23 47 -15 0 -36 43 -48 98 -5 25 -3 32 9 32 9 0
25 -15 36 -32z m274 17 c-4 -8 -8 -15 -10 -15 -2 0 -4 7 -4 15 0 8 4 15 10 15
5 0 7 -7 4 -15z m-470 -45 c-7 -6 -24 22 -23 40 0 9 6 5 14 -10 7 -14 11 -27
9 -30z m138 -73 c-3 -12 -8 -15 -15 -8 -12 12 -25 82 -19 101 7 20 40 -70 34
-93z m427 20 c12 -46 69 -280 76 -311 21 -94 -80 188 -113 316 -6 20 -8 39 -5
42 13 12 32 -9 42 -47z m-1465 6 c4 -21 8 -58 10 -83 l4 -45 -14 32 c-15 36
-25 133 -13 133 4 0 10 -17 13 -37z m1256 17 c6 -11 26 -65 46 -120 19 -55 46
-126 59 -156 40 -92 27 -87 -25 8 -30 55 -110 258 -110 278 0 17 19 11 30 -10z
m-294 -66 c-3 -9 -6 -22 -6 -30 0 -9 -4 -12 -10 -9 -8 5 -8 28 -1 53 1 1 6 2
12 2 6 0 8 -7 5 -16z m454 0 c0 -8 -5 -12 -10 -9 -6 4 -8 11 -5 16 9 14 15 11
15 -7z m-390 -20 c0 -8 -6 -11 -15 -8 -8 4 -15 12 -15 20 0 8 6 11 15 8 8 -4
15 -12 15 -20z m-791 -110 c1 -37 -2 -63 -7 -60 -5 3 -10 35 -11 72 -1 37 2
63 7 60 5 -3 10 -35 11 -72z m779 15 c-1 -13 -7 -23 -13 -22 -13 3 -18 30 -11
50 10 24 29 1 24 -28z m969 -24 c60 -108 83 -196 74 -285 -2 -18 -101 205
-101 226 0 9 -7 14 -17 12 -22 -4 -47 79 -30 100 18 23 39 8 74 -53z m-39
-110 c-3 -3 -9 2 -12 12 -6 14 -5 15 5 6 7 -7 10 -15 7 -18z m-1532 -57 c36
-58 78 -103 146 -153 42 -32 53 -44 40 -47 -30 -8 -60 6 -115 54 -51 44 -86
100 -101 161 -9 38 0 34 30 -15z m1115 -88 c119 -156 125 -182 18 -77 -37 36
-78 88 -97 123 -62 118 -34 102 79 -46z m921 83 c26 -26 48 -53 48 -60 0 -12
13 -17 33 -14 4 1 18 -5 30 -14 12 -8 29 -15 38 -15 36 0 80 -54 129 -154 69
-143 85 -197 85 -291 0 -65 -5 -90 -26 -135 -34 -71 -43 -100 -31 -100 6 0 20
12 31 28 20 26 20 26 21 5 0 -13 -9 -32 -20 -43 -20 -20 -22 -20 -50 -3 -16 9
-32 23 -34 30 -3 7 9 43 27 80 28 60 32 78 32 153 -1 62 -7 104 -25 155 -35
104 -75 157 -51 69 10 -39 16 -68 27 -135 7 -40 -20 -177 -44 -224 -22 -43
-27 -14 -7 46 31 91 18 170 -50 316 -36 76 -57 106 -121 170 -66 66 -78 84
-89 130 -7 29 -10 53 -7 53 4 0 28 -21 54 -47z m332 -92 c-9 -9 -46 37 -39 49
5 8 13 3 26 -16 10 -16 16 -30 13 -33z m-3013 -152 c-10 -23 -10 -23 -7 6 3
17 6 57 7 90 l3 60 3 -66 c2 -36 -1 -76 -6 -90z m2008 36 c23 -36 46 -78 52
-93 l10 -27 -26 30 c-47 56 -99 155 -81 155 2 0 23 -29 45 -65z m755 13 c53
-89 93 -409 45 -361 -8 8 -45 147 -63 235 -23 116 -25 129 -17 156 4 10 20 -3
35 -30z m-1755 -9 c-8 -5 -21 -9 -29 -9 -12 1 -11 4 4 15 10 8 23 12 29 8 5
-3 3 -9 -4 -14z m902 -96 c27 -25 47 -48 44 -51 -8 -9 -115 69 -115 84 0 24
19 15 71 -33z m639 -35 c0 -7 -12 -26 -26 -43 -24 -29 -25 -29 -18 -5 6 22 31
60 41 60 1 0 3 -6 3 -12z m-735 -98 c8 -13 -15 -13 -35 0 -12 8 -11 10 7 10
12 0 25 -4 28 -10z m-1864 -27 c-8 -15 -10 -15 -11 -2 0 17 10 32 18 25 2 -3
-1 -13 -7 -23z m3149 -117 c-11 -11 -14 8 -11 83 3 73 16 71 19 -3 2 -39 -2
-74 -8 -80z m-1007 106 c18 -16 24 -48 7 -37 -5 3 -19 20 -32 37 -21 31 -11
31 25 0z m106 -87 c11 6 34 -21 29 -35 -5 -16 -72 32 -76 54 -3 16 -1 15 17
-3 12 -12 26 -19 30 -16z m-2434 -75 c-41 -85 -71 -125 -56 -73 9 31 58 131
74 151 24 31 16 -3 -18 -78z m2865 49 c0 -5 -7 -9 -15 -9 -9 0 -12 6 -9 15 6
15 24 11 24 -6z m30 -80 c0 -31 -16 -40 -22 -11 -6 24 3 53 13 46 5 -3 9 -18
9 -35z m63 -56 c5 -24 3 -31 -7 -27 -15 6 -39 101 -29 117 7 11 25 -35 36 -90z
m337 26 c-7 -11 -14 -19 -16 -16 -7 7 7 37 17 37 6 0 5 -9 -1 -21z m-609 -21
c19 -22 19 -35 0 -23 -14 8 -34 45 -25 45 4 0 15 -10 25 -22z m224 -18 c-3 -5
-10 -10 -16 -10 -5 0 -9 5 -9 10 0 6 7 10 16 10 8 0 12 -4 9 -10z m146 -73
c36 -52 36 -52 23 -102 -7 -27 -13 -54 -14 -60 0 -6 -3 -6 -9 0 -7 8 -51 188
-51 210 0 16 19 -2 51 -48z m-271 -35 c0 -9 -10 -28 -21 -42 -17 -21 -20 -21
-14 -5 13 40 15 70 6 84 -11 18 -31 5 -31 -20 0 -10 -4 -19 -10 -19 -15 0 -12
23 7 49 l16 24 24 -27 c12 -15 23 -35 23 -44z m513 38 c-6 -22 -21 -35 -29
-27 -7 7 15 47 25 47 5 0 7 -9 4 -20z m-3513 -105 c0 -9 -154 -105 -159 -99
-9 8 32 42 89 73 55 30 70 36 70 26z m20 -206 c-43 -113 -70 -170 -70 -148 0
35 107 295 117 285 2 -2 -19 -64 -47 -137z m3100 110 c0 -6 -4 -7 -10 -4 -5 3
-10 11 -10 16 0 6 5 7 10 4 6 -3 10 -11 10 -16z m-3438 -46 c-6 -10 -20 -27
-31 -37 -21 -19 -21 -19 -21 1 0 28 40 77 52 65 6 -6 6 -17 0 -29z m-81 -50
c0 -5 2 -16 4 -26 4 -21 -78 -218 -91 -218 -18 0 -25 64 -14 112 14 55 65 139
86 139 8 0 14 -3 15 -7z m3516 -29 c8 -22 -15 -44 -26 -25 -10 16 -4 41 10 41
5 0 12 -7 16 -16z m-3357 -86 c-22 -59 -34 -73 -50 -63 -14 9 -4 41 29 87 35
49 45 38 21 -24z m3064 20 c-9 -14 -23 2 -17 18 4 12 8 13 14 3 4 -7 5 -17 3
-21z m675 -35 c13 -51 23 -189 16 -213 -4 -11 -12 -17 -20 -14 -9 4 -16 -4
-21 -23 -22 -99 -37 -149 -64 -211 -36 -85 -100 -196 -107 -188 -4 3 8 36 25
73 28 61 61 179 104 371 12 52 12 64 1 73 -7 6 -13 18 -13 26 0 12 7 14 31 9
l31 -6 -16 25 c-14 21 -15 32 -5 70 6 25 15 45 20 45 4 0 13 -17 18 -37z
m-385 -14 c15 -31 14 -49 -4 -49 -10 0 -29 61 -23 73 7 12 11 8 27 -24z m111
-49 c10 -22 15 -43 12 -47 -4 -3 -9 2 -13 11 -3 9 -12 16 -19 16 -16 0 -23 19
-17 43 7 27 17 20 37 -23z m-3537 13 c15 -15 17 -44 17 -239 0 -201 -2 -225
-18 -241 -17 -17 -17 -16 -3 24 l15 42 -27 3 c-20 2 -32 13 -47 43 -39 80 -23
309 28 373 12 16 15 15 35 -5z m3923 -47 c3 -80 -2 -125 -27 -206 -31 -104
-122 -265 -140 -248 -3 3 6 28 19 55 28 55 80 196 97 263 7 25 14 74 15 110 2
36 4 72 5 80 1 28 30 -21 31 -54z m-3635 -104 c-11 -10 -13 3 -7 43 l6 40 3
-39 c2 -21 1 -41 -2 -44z m3303 34 c10 -21 11 -36 3 -60 -9 -29 -10 -30 -11
-5 -1 14 -8 34 -16 45 -18 23 -20 57 -2 52 6 -3 18 -17 26 -32z m35 -146 c-4
-14 -8 -34 -9 -45 -1 -11 -7 -33 -13 -48 -7 -16 -12 -38 -12 -50 0 -18 -32
-117 -65 -202 -12 -29 -66 -107 -71 -102 -3 2 15 44 38 92 36 75 42 99 44 159
1 39 3 79 3 88 1 11 6 15 16 12 18 -7 22 4 28 71 3 28 9 59 13 69 7 18 7 18
21 0 9 -12 11 -28 7 -44z m-3394 -20 c0 -19 -5 -30 -14 -30 -12 0 -14 15 -7
53 0 4 6 7 11 7 6 0 10 -13 10 -30z m67 8 c-3 -8 -6 -5 -6 6 -1 11 2 17 5 13
3 -3 4 -12 1 -19z m3263 -23 c0 -26 -16 -42 -22 -23 -7 19 3 58 13 52 5 -3 9
-16 9 -29z m-3066 -59 c18 -61 20 -96 7 -96 -10 0 -31 85 -31 125 0 39 7 30
24 -29z m2886 -83 c-11 -17 -11 -17 -6 0 3 10 7 37 8 60 l1 42 4 -42 c2 -24
-1 -51 -7 -60z m-2958 31 c-3 -16 -8 -22 -14 -16 -5 5 -6 21 -2 37 8 33 23 15
16 -21z m-182 4 c-1 -27 -26 -63 -34 -50 -3 6 -4 17 -1 26 3 9 7 23 10 31 7
23 25 18 25 -7z m67 -80 c-3 -8 -6 -5 -6 6 -1 11 2 17 5 13 3 -3 4 -12 1 -19z
m-51 -58 c-6 -33 -46 -108 -48 -90 -7 74 -4 123 10 137 14 14 17 13 29 -3 7
-10 11 -30 9 -44z m3430 -89 c-32 -31 -34 -18 -4 29 18 29 23 32 26 16 2 -11
-7 -29 -22 -45z m-327 11 c-16 -41 -92 -182 -96 -178 -3 2 9 31 26 65 17 33
31 65 31 71 0 6 7 27 15 46 17 42 40 38 24 -4z m295 -76 c-3 -15 0 -33 9 -46
14 -21 12 -60 -3 -60 -17 0 -28 108 -13 123 12 12 14 8 7 -17z m-104 -110 c0
-45 -1 -88 -3 -96 -21 -91 -59 -177 -81 -186 -8 -3 -17 -15 -20 -27 -6 -21 -7
-21 -17 -4 -8 14 -7 21 5 30 39 29 81 181 90 322 6 98 5 95 17 66 5 -14 10
-61 9 -105z m-3360 80 c0 -6 -5 -18 -10 -26 -8 -13 -10 -12 -10 3 0 9 -5 17
-11 17 -5 0 -8 4 -5 8 7 13 36 11 36 -2z m355 -111 c-3 -41 -7 -82 -9 -92 -2
-10 -7 -44 -10 -75 -11 -86 -30 -88 -23 -2 4 38 8 78 11 89 2 11 9 50 16 88 7
37 14 67 17 67 3 0 2 -34 -2 -75z m-84 -18 c-13 -13 -26 -3 -16 12 3 6 11 8
17 5 6 -4 6 -10 -1 -17z m2850 -39 c-28 -70 -71 -138 -71 -113 0 22 63 135 75
135 3 0 0 -10 -4 -22z m109 -26 c0 -13 -12 -22 -22 -16 -10 6 -1 24 13 24 5 0
9 -4 9 -8z m225 -24 c6 -32 10 -146 7 -201 -2 -26 -3 -27 -25 -12 -46 30 -51
59 -25 157 12 48 26 88 30 88 4 0 10 -15 13 -32z m-215 -90 c0 -16 -4 -28 -10
-28 -5 0 -10 19 -10 43 0 31 3 38 10 27 5 -8 10 -27 10 -42z m-36 -77 c29 -66
36 -116 12 -91 -8 8 -24 44 -35 79 -24 74 -24 71 -12 71 4 0 20 -26 35 -59z
m-2749 1 c-8 -43 -35 -88 -35 -59 0 10 5 38 11 62 13 53 34 50 24 -3z m2625 8
c21 -42 27 -75 10 -65 -20 12 -51 105 -35 105 2 0 14 -18 25 -40z m-2907 -35
c9 -20 17 -46 17 -58 l0 -21 -16 23 c-18 26 -36 91 -25 91 4 0 15 -16 24 -35z
m3250 -47 c9 -9 17 -24 17 -33 0 -8 -8 -16 -17 -16 -10 -1 -27 -3 -38 -4 -11
-1 -28 1 -37 4 -16 6 -16 9 3 50 21 47 24 47 72 -1z m-3193 -63 c0 -27 -1 -28
-16 -13 -12 12 -15 25 -10 44 6 22 9 25 17 13 5 -7 9 -27 9 -44z m2984 -16
c-8 -13 -24 -1 -24 18 0 13 3 13 15 3 8 -7 12 -16 9 -21z m-186 -107 c15 -85
-3 -168 -57 -267 l-22 -40 6 55 c4 30 8 124 11 209 2 85 7 158 10 163 9 14 41
-63 52 -120z m391 102 c6 -6 -45 -77 -79 -109 -37 -36 -76 -36 -107 -1 -29 34
-29 47 1 75 21 20 31 22 63 16 21 -5 44 -9 50 -11 23 -4 24 14 2 21 -16 5 -18
9 -9 15 12 7 70 3 79 -6z m52 -61 c-18 -36 -51 -74 -51 -59 0 11 62 107 67
102 2 -2 -5 -22 -16 -43z m-3229 -50 c6 -29 -11 -146 -22 -157 -11 -11 -14
112 -4 152 7 26 21 29 26 5z m3158 -69 c-14 -16 -50 -38 -50 -30 0 9 43 46 53
46 5 0 4 -7 -3 -16z m-570 -128 c0 -3 -4 -8 -10 -11 -5 -3 -10 -1 -10 4 0 6 5
11 10 11 6 0 10 -2 10 -4z m-60 -36 c0 -5 -8 -10 -17 -10 -15 0 -16 2 -3 10
19 12 20 12 20 0z m65 -90 c-1 -28 -6 -55 -11 -60 -7 -7 -10 7 -9 40 3 73 4
82 13 76 5 -3 8 -28 7 -56z m145 -17 c-11 -17 -11 -17 -6 0 3 10 6 24 7 30 0
9 2 9 5 0 3 -7 0 -20 -6 -30z m-2084 -223 c30 -102 56 -200 57 -217 1 -18 5
-33 8 -33 4 0 25 -39 48 -86 23 -47 66 -130 97 -183 31 -53 59 -100 62 -104 2
-5 -5 -4 -17 2 -23 13 -71 80 -75 105 -1 9 -12 26 -25 37 -58 54 -196 461
-215 634 -7 65 -6 62 60 -155z m2060 142 c-14 -48 -45 -95 -45 -70 -1 9 6 29
13 45 8 15 17 36 20 46 3 9 10 17 15 17 5 0 4 -16 -3 -38z m-56 -147 c0 -8 -4
-15 -10 -15 -5 0 -7 7 -4 15 4 8 8 15 10 15 2 0 4 -7 4 -15z m-2234 -1312
c-11 -11 -19 6 -11 24 8 17 8 17 12 0 3 -10 2 -21 -1 -24z"/>
<path d="M3138 5593 c14 -26 69 -73 85 -73 7 1 1 10 -13 21 -14 11 -38 32 -54
47 -25 22 -27 23 -18 5z"/>
<path d="M3180 5085 c0 -2 10 -10 23 -16 20 -11 21 -11 8 4 -13 16 -31 23 -31
12z"/>
<path d="M3256 4998 c3 -7 46 -44 96 -83 98 -76 144 -105 88 -56 -19 17 -37
31 -41 31 -12 0 -20 33 -9 40 6 4 -9 15 -32 25 -24 11 -55 27 -70 37 -31 21
-39 23 -32 6z"/>
<path d="M3182 4788 c2 -6 20 -23 39 -37 l34 -25 -34 37 c-37 39 -45 45 -39
25z"/>
<path d="M2649 4725 c17 -34 31 -51 31 -39 0 7 -9 22 -21 35 -16 19 -18 20
-10 4z"/>
<path d="M3596 4685 c9 -14 19 -24 21 -21 7 7 -16 46 -28 46 -5 0 -2 -11 7
-25z"/>
<path d="M2496 4673 c-11 -11 -6 -23 9 -23 8 0 15 4 15 9 0 13 -16 22 -24 14z"/>
<path d="M3546 4666 c3 -9 11 -16 16 -16 13 0 5 23 -10 28 -7 2 -10 -2 -6 -12z"/>
<path d="M3700 4504 c0 -8 5 -12 10 -9 6 4 8 11 5 16 -9 14 -15 11 -15 -7z"/>
<path d="M3278 4443 c7 -3 16 -2 19 1 4 3 -2 6 -13 5 -11 0 -14 -3 -6 -6z"/>
<path d="M3637 4266 c-4 -9 -15 -16 -26 -16 -20 0 -81 -54 -81 -71 0 -5 -4 -9
-10 -9 -5 0 -10 7 -10 16 0 30 -25 7 -34 -32 -11 -47 -7 -44 -42 -50 -35 -6
-38 -9 -31 -28 5 -11 21 -13 79 -9 l73 4 -26 -28 c-54 -60 -75 -116 -46 -126
6 -2 30 3 51 11 36 14 40 14 52 -2 10 -14 22 -17 56 -13 24 4 55 6 70 6 19 1
26 5 22 15 -3 8 5 21 17 30 26 18 45 8 60 -32 8 -21 14 -23 67 -21 31 1 68 6
82 10 153 44 145 42 173 24 30 -19 85 -22 115 -6 11 6 31 11 43 11 21 0 20 3
-12 26 -114 86 -224 116 -421 117 -60 1 -108 4 -108 8 0 17 173 83 249 95 23
4 44 11 47 16 11 17 -18 37 -64 43 -26 4 -61 8 -77 10 -17 2 -83 7 -146 10
-101 6 -117 5 -122 -9z m72 -262 c-15 -19 -69 -47 -69 -37 0 5 17 18 38 29 46
27 47 27 31 8z m361 -18 c0 -21 -20 -30 -33 -17 -9 9 -8 14 3 21 21 14 30 12
30 -4z"/>
<path d="M3547 4252 c-19 -20 -23 -37 -7 -27 10 6 33 45 27 45 -2 0 -11 -8
-20 -18z"/>
<path d="M2770 4179 c-19 -4 -57 -11 -85 -14 -80 -9 -107 -16 -166 -41 -56
-23 -134 -26 -190 -9 -15 5 -31 -4 -62 -37 -51 -54 -97 -112 -115 -146 -22
-40 -52 -132 -43 -132 12 0 85 65 155 138 95 100 109 106 224 98 53 -4 98 -9
102 -11 3 -1 43 -6 90 -9 121 -9 150 -16 150 -33 0 -11 -6 -13 -22 -8 -13 4
-45 10 -73 12 -81 7 -248 -54 -434 -157 -58 -33 -81 -40 -105 -36 l-30 6 23
-24 c16 -17 19 -25 9 -28 -7 -3 18 -8 56 -12 61 -6 78 -13 132 -51 61 -44 121
-63 94 -30 -7 8 -18 15 -24 15 -15 1 -61 42 -74 67 -14 26 -3 40 36 46 41 7
51 15 33 27 -15 8 -8 40 8 40 5 0 15 -16 21 -34 10 -31 16 -36 58 -42 30 -4
67 -2 102 7 47 12 58 19 75 51 13 26 27 38 41 38 24 0 49 -24 40 -39 -14 -23
86 -20 133 3 14 7 39 13 54 12 33 -2 42 8 39 45 -1 15 6 33 18 44 25 23 25 35
0 35 -30 0 -110 23 -110 32 0 4 -6 8 -13 8 -7 0 -20 9 -30 20 -9 11 -24 20
-32 20 -22 0 -18 17 4 23 12 3 23 18 28 38 7 23 16 35 34 39 23 6 23 7 4 16
-11 6 -40 12 -65 13 -25 2 -47 4 -50 5 -3 2 -21 -1 -40 -5z"/>
<path d="M4351 4039 c-13 -5 -22 -12 -19 -15 8 -8 58 7 58 17 0 11 -8 11 -39
-2z"/>
<path d="M3057 4016 c-6 -15 1 -26 15 -26 11 0 10 27 -1 34 -5 3 -11 0 -14 -8z"/>
<path d="M4125 3862 c-31 -26 -49 -52 -37 -52 17 0 65 45 61 57 -3 8 -11 5
-24 -5z"/>
<path d="M3697 3124 l3 -87 -37 -33 c-20 -19 -41 -34 -45 -34 -4 0 -8 -4 -8
-10 0 -18 19 -11 55 21 43 38 55 59 70 122 l11 49 63 -47 c35 -25 65 -44 67
-42 9 8 -160 147 -179 147 -2 0 -2 -39 0 -86z"/>
<path d="M2923 3138 c-81 -89 -41 -182 93 -221 79 -23 100 -25 97 -9 -3 12 33
16 107 12 45 -2 60 -15 60 -51 0 -34 13 -44 30 -24 7 8 17 15 23 15 6 0 21 11
32 23 34 40 97 76 160 90 95 23 115 34 130 72 19 44 19 45 -7 42 -12 -2 -47 4
-77 14 -54 16 -57 16 -83 -3 -22 -15 -27 -16 -22 -4 4 12 2 15 -9 11 -8 -4
-24 -39 -36 -79 -19 -65 -44 -106 -64 -106 -4 0 -7 9 -7 19 0 13 -8 21 -22 23
-12 2 -28 14 -35 28 -10 21 -13 22 -18 7 -6 -14 -11 -13 -40 10 -24 20 -31 31
-24 39 12 15 1 23 -35 26 -14 1 -26 8 -26 15 0 19 -11 16 -51 -11 -19 -13 -56
-34 -82 -46 -50 -24 -63 -45 -23 -38 24 5 24 4 9 -19 -22 -33 -40 -29 -62 16
-30 58 -33 89 -10 132 22 45 21 48 -8 17z m142 -209 c11 -16 2 -17 -30 -3
l-30 13 27 1 c15 0 30 -5 33 -11z m276 -52 c-13 -13 -26 -3 -16 12 3 6 11 8
17 5 6 -4 6 -10 -1 -17z"/>
<path d="M4150 2868 c0 -13 24 -63 42 -87 24 -31 23 -19 -2 27 -24 46 -40 69
-40 60z"/>
<path d="M2342 2676 c2 -23 9 -41 17 -44 11 -4 13 3 7 29 -10 51 -28 62 -24
15z"/>
<path d="M3875 2669 c-26 -15 -103 -35 -215 -54 -79 -14 -126 -27 -211 -60
-90 -36 -117 -39 -153 -18 -14 8 -32 7 -70 -4 -28 -7 -119 -16 -203 -20 l-152
-6 -12 27 c-7 14 -17 27 -23 27 -41 4 -102 -22 -155 -67 -30 -25 -31 -27 -15
-45 10 -11 25 -17 38 -14 99 22 237 33 536 41 171 4 187 7 334 48 67 19 135
37 151 39 17 3 55 12 85 21 31 9 91 18 134 21 89 6 96 9 96 35 0 14 -13 22
-52 33 -65 18 -75 18 -113 -4z"/>
<path d="M4276 2387 c-33 -71 -43 -111 -25 -105 14 5 56 82 69 129 15 51 -16
34 -44 -24z"/>
<path d="M3415 2330 c3 -5 8 -10 11 -10 2 0 4 5 4 10 0 6 -5 10 -11 10 -5 0
-7 -4 -4 -10z"/>
<path d="M4380 5871 c0 -15 16 -22 34 -15 25 9 19 24 -9 24 -14 0 -25 -4 -25
-9z"/>
<path d="M1649 5843 c-13 -17 -13 -17 6 -3 11 8 22 16 24 17 2 2 0 3 -6 3 -6
0 -17 -8 -24 -17z"/>
<path d="M2432 5840 c-6 -11 -12 -22 -12 -25 0 -11 20 6 30 26 14 25 -2 25
-18 -1z"/>
<path d="M1570 5789 c-87 -75 -113 -105 -191 -219 -46 -67 -90 -130 -97 -140
-11 -15 -10 -18 8 -23 16 -4 23 2 34 28 17 41 61 65 116 65 l42 0 -31 -39
c-17 -21 -49 -75 -70 -118 -22 -43 -46 -85 -55 -92 -20 -17 -21 -31 -1 -31 8
0 15 -8 15 -17 0 -16 3 -15 18 3 9 12 33 27 53 33 44 14 88 46 156 112 67 66
103 118 108 159 l4 34 -22 -25 c-12 -14 -35 -33 -52 -42 -20 -11 -24 -16 -12
-17 9 0 17 -6 17 -14 0 -23 -125 -140 -179 -168 -28 -14 -51 -24 -51 -22 0 3
11 21 24 42 13 20 35 58 49 83 14 25 43 59 63 74 l37 28 -27 23 c-19 17 -36
22 -64 20 -20 -2 -47 -2 -59 1 -22 5 -22 6 12 47 124 149 160 192 165 196 3 3
14 15 24 28 27 32 7 27 -34 -9z"/>
<path d="M4378 5803 c7 -3 16 -2 19 1 4 3 -2 6 -13 5 -11 0 -14 -3 -6 -6z"/>
<path d="M2292 5779 c2 -7 -7 -18 -19 -24 -13 -5 -23 -13 -23 -18 0 -7 -40
-62 -102 -141 -14 -19 -7 -17 50 11 37 18 70 33 75 33 13 0 7 -67 -8 -80 -15
-12 -12 -30 5 -30 26 0 53 241 29 256 -5 3 -8 0 -7 -7z"/>
<path d="M3553 5760 c-13 -5 -23 -12 -23 -15 0 -9 16 -5 36 10 22 16 19 18
-13 5z"/>
<path d="M1795 5730 c-3 -5 -2 -10 4 -10 5 0 13 5 16 10 3 6 2 10 -4 10 -5 0
-13 -4 -16 -10z"/>
<path d="M1376 5685 c-9 -14 -15 -25 -13 -25 7 0 47 37 47 44 0 14 -19 4 -34
-19z"/>
<path d="M2130 5695 c-11 -13 -10 -14 4 -9 9 3 16 10 16 15 0 13 -6 11 -20 -6z"/>
<path d="M2070 5635 c-35 -26 -70 -33 -70 -15 0 14 -17 4 -76 -45 -92 -76 -97
-82 -88 -88 14 -8 124 43 124 58 0 8 9 10 26 7 27 -5 65 24 106 81 24 33 21
34 -22 2z"/>
<path d="M2336 5544 c-19 -46 -118 -187 -149 -213 -9 -7 -17 -17 -17 -22 0
-11 31 14 77 61 42 43 123 176 123 201 0 32 -14 21 -34 -27z"/>
<path d="M2083 5534 c-15 -14 -47 -40 -70 -57 -23 -16 -40 -34 -37 -39 7 -11
48 19 104 76 47 49 50 63 3 20z"/>
<path d="M3670 5516 c0 -9 5 -16 10 -16 6 0 10 4 10 9 0 6 -4 13 -10 16 -5 3
-10 -1 -10 -9z"/>
<path d="M2134 5494 c-18 -14 -18 -15 6 -8 31 8 50 24 29 24 -8 0 -24 -7 -35
-16z"/>
<path d="M4080 5476 c0 -2 8 -10 18 -17 15 -13 16 -12 3 4 -13 16 -21 21 -21
13z"/>
<path d="M4497 5470 c15 -16 90 -24 148 -15 26 3 45 9 42 11 -9 9 -107 13
-107 4 0 -9 -9 -8 -65 5 -24 6 -28 5 -18 -5z"/>
<path d="M1928 5420 c-1 -5 -35 -12 -75 -14 -62 -4 -113 -18 -113 -31 0 -2 -7
-30 -15 -62 -8 -32 -17 -80 -20 -108 -4 -41 -11 -56 -44 -89 -22 -22 -43 -37
-46 -34 -3 3 7 58 23 121 31 126 25 151 -9 34 -11 -40 -29 -97 -40 -127 -16
-47 -56 -242 -73 -360 -2 -19 -8 -55 -11 -80 -7 -50 -32 -116 -41 -107 -7 6
-12 33 -13 65 -2 43 -16 21 -17 -26 -1 -34 -9 -60 -32 -97 -39 -62 -84 -145
-78 -145 2 0 23 29 46 64 67 104 89 112 49 20 -13 -31 -16 -50 -10 -52 6 -2
11 -13 11 -25 1 -21 2 -21 25 6 14 15 27 40 31 55 3 15 16 54 29 87 47 117 58
172 71 353 4 48 8 96 9 107 1 11 3 29 4 41 0 12 19 34 46 53 37 26 46 30 51
17 8 -20 -2 -120 -14 -143 -5 -10 -12 -45 -15 -78 -11 -115 -90 -344 -140
-405 -12 -14 -46 -115 -81 -240 -17 -62 -46 -95 -116 -131 l-45 -24 37 -3 c50
-4 89 18 167 96 52 53 77 89 118 172 91 186 117 308 126 578 1 13 30 58 69
103 37 44 80 100 95 123 15 24 42 49 58 56 17 6 25 14 18 16 -16 7 -91 -14
-99 -28 -4 -7 -3 -8 4 -4 7 4 12 1 12 -6 0 -24 -133 -188 -153 -188 -10 0 -7
93 5 137 6 20 5 40 -1 52 -9 16 -4 23 29 46 41 28 164 156 181 187 5 10 5 19
0 22 -5 4 -11 2 -13 -4z"/>
<path d="M4235 5389 c22 -10 49 -18 60 -18 11 0 -2 9 -30 19 -63 25 -83 24
-30 -1z"/>
<path d="M4570 5382 l-35 -13 45 6 c25 3 49 10 54 15 12 12 -21 8 -64 -8z"/>
<path d="M2393 5368 c-6 -7 -13 -24 -16 -38 l-6 -25 20 24 c10 13 19 29 19 37
0 17 -5 18 -17 2z"/>
<path d="M2075 5333 c-16 -9 -82 -36 -145 -59 -128 -48 -134 -58 -12 -19 100
32 166 60 182 80 15 19 13 18 -25 -2z"/>
<path d="M2115 5280 c-3 -5 -15 -10 -26 -10 -10 0 -19 -7 -19 -15 0 -8 3 -15
8 -15 13 0 68 49 55 50 -6 0 -15 -4 -18 -10z"/>
<path d="M1543 5255 c-9 -25 4 -29 17 -6 7 15 7 21 0 21 -6 0 -13 -7 -17 -15z"/>
<path d="M2380 5232 c-94 -48 -151 -88 -146 -102 2 -8 13 -40 24 -70 20 -52
21 -54 30 -30 10 26 39 56 47 49 7 -7 -59 -121 -70 -121 -5 0 -29 36 -52 82
-23 45 -45 85 -48 88 -9 8 2 -91 19 -187 16 -85 5 -134 -35 -146 -11 -4 -22
-5 -24 -3 -1 1 -6 34 -9 73 -4 38 -11 85 -16 105 -5 20 -8 46 -5 58 2 14 -2
25 -10 29 -8 3 -15 13 -15 23 0 13 -10 19 -37 23 -48 5 -58 -3 -61 -49 -4 -50
-21 -81 -22 -39 -1 28 -20 65 -33 65 -3 0 -24 -30 -47 -67 -22 -38 -57 -88
-78 -112 -37 -44 -18 -46 22 -2 40 44 39 -14 -2 -82 -11 -18 -25 -68 -32 -112
-7 -44 -20 -94 -30 -110 -15 -28 -26 -60 -35 -107 -2 -9 -15 -59 -28 -110 -42
-157 -65 -209 -113 -254 -54 -50 -193 -123 -252 -131 -23 -3 -45 -10 -49 -16
-10 -16 84 -1 172 27 l80 25 -40 -38 c-61 -58 -71 -71 -51 -71 9 0 16 6 16 13
0 6 12 18 28 24 39 18 163 142 179 181 7 17 18 32 23 32 17 0 141 130 204 213
69 91 19 -18 -59 -128 -60 -85 -375 -402 -491 -493 -34 -27 -46 -31 -75 -26
-19 4 -38 12 -44 18 -31 35 -45 35 -17 -1 l33 -42 -20 -63 c-29 -91 -64 -299
-52 -311 14 -14 31 1 31 28 0 30 10 55 21 55 5 0 9 -6 9 -12 1 -7 12 -26 26
-43 l26 -30 -26 52 c-31 63 -32 82 -5 134 32 64 104 172 128 193 11 11 21 25
21 31 0 7 26 32 58 56 99 74 338 323 367 381 14 29 50 82 80 118 82 97 91 115
116 213 16 68 26 91 40 94 12 3 19 14 19 28 0 23 56 101 98 139 18 15 24 16
37 6 12 -10 15 -10 16 1 2 33 11 74 20 92 10 17 12 17 23 2 10 -14 19 -1 63
92 56 117 60 129 67 185 3 21 10 47 16 58 18 34 7 42 -30 22z m0 -51 c0 -5 -6
-14 -14 -20 -16 -13 -32 2 -21 19 8 12 35 13 35 1z m-458 -153 c-7 -7 -12 -8
-12 -2 0 14 12 26 19 19 2 -3 -1 -11 -7 -17z m307 -63 c23 -49 26 -65 11 -65
-12 0 -25 25 -38 73 -14 51 1 47 27 -8z m-292 -324 c-3 -16 -9 -42 -12 -57
l-7 -29 21 25 c11 14 21 19 21 12 0 -22 -20 -52 -35 -52 -8 0 -15 -9 -15 -20
0 -23 -34 -95 -50 -105 -5 -3 -10 -4 -10 0 0 4 47 155 75 243 8 24 17 11 12
-17z m-647 -953 c0 -12 -59 -108 -67 -108 -8 0 8 63 23 93 14 27 44 38 44 15z"/>
<path d="M2015 5220 c-8 -13 5 -13 25 0 13 8 13 10 -2 10 -9 0 -20 -4 -23 -10z"/>
<path d="M1425 5161 c-27 -82 -131 -183 -205 -197 -43 -9 -37 -25 8 -18 52 8
94 30 147 76 52 46 72 79 81 136 9 59 -11 61 -31 3z"/>
<path d="M1816 5166 c4 -10 -2 -12 -23 -9 -20 3 -24 2 -14 -5 11 -8 11 -10 0
-14 -8 -3 -11 -8 -8 -12 8 -9 61 12 71 27 4 6 2 15 -5 19 -18 12 -27 9 -21 -6z"/>
<path d="M1956 5143 c-6 -14 -5 -15 5 -6 7 7 10 15 7 18 -3 3 -9 -2 -12 -12z"/>
<path d="M4541 5024 c0 -11 3 -14 6 -6 3 7 2 16 -1 19 -3 4 -6 -2 -5 -13z"/>
<path d="M4727 4994 c-4 -4 -3 -12 2 -18 14 -17 28 -164 24 -263 -3 -109 -23
-177 -68 -236 -36 -48 -41 -57 -27 -57 22 0 83 77 99 124 40 118 15 495 -30
450z"/>
<path d="M1340 4893 c-108 -109 -160 -176 -160 -206 0 -18 1 -17 21 4 l20 24
-7 -25 c-4 -14 -9 -32 -12 -40 -2 -8 13 12 34 45 21 33 57 85 80 115 48 63
130 143 122 119 -10 -28 -83 -119 -95 -119 -7 0 -13 -6 -13 -13 0 -8 -13 -32
-30 -53 -16 -21 -39 -52 -52 -69 -19 -25 -19 -28 -3 -15 11 8 28 23 39 32 11
10 21 16 23 14 2 -2 -24 -58 -57 -125 -33 -67 -60 -123 -60 -125 0 -2 -16 -38
-35 -79 -40 -86 -78 -232 -73 -285 3 -35 4 -34 17 22 7 33 22 80 33 105 11 25
21 57 22 71 1 14 25 66 52 115 28 50 86 160 129 245 43 85 88 173 101 195 29
51 37 145 12 145 -6 0 -55 -44 -108 -97z"/>
<path d="M1305 4949 c-9 -14 -2 -20 14 -10 8 6 9 11 3 15 -6 3 -14 1 -17 -5z"/>
<path d="M1431 4704 c0 -11 3 -14 6 -6 3 7 2 16 -1 19 -3 4 -6 -2 -5 -13z"/>
<path d="M5363 4685 c21 -20 41 -34 44 -31 6 6 -31 41 -62 57 -11 6 -3 -6 18
-26z"/>
<path d="M5450 4595 c8 -11 26 -31 39 -45 l24 -25 -21 31 c-12 17 -29 37 -39
45 -17 13 -17 13 -3 -6z"/>
<path d="M5354 4515 c4 -16 12 -34 17 -39 5 -6 5 4 -1 24 -12 42 -25 55 -16
15z"/>
<path d="M1265 4247 c-25 -24 -45 -51 -45 -60 0 -11 13 -2 38 26 78 88 82 106
7 34z"/>
<path d="M5306 2120 c14 -27 85 -130 90 -130 9 0 -39 80 -69 113 -15 17 -25
25 -21 17z"/>
<path d="M4411 1984 c0 -11 3 -14 6 -6 3 7 2 16 -1 19 -3 4 -6 -2 -5 -13z"/>
<path d="M4850 1961 c0 -5 5 -13 10 -16 6 -3 10 -2 10 4 0 5 -4 13 -10 16 -5
3 -10 2 -10 -4z"/>
<path d="M5426 1940 c9 -16 20 -30 25 -30 6 0 1 14 -11 30 -12 17 -23 30 -25
30 -2 0 3 -13 11 -30z"/>
<path d="M4356 1805 c-3 -8 -1 -15 4 -15 6 0 10 7 10 15 0 8 -2 15 -4 15 -2 0
-6 -7 -10 -15z"/>
<path d="M3927 1619 c-29 -22 -54 -59 -39 -59 10 0 82 65 82 74 0 11 -14 6
-43 -15z"/>
<path d="M1126 1498 c-10 -18 -28 -41 -40 -50 -12 -10 -16 -18 -9 -18 6 0 24
17 40 38 38 48 46 62 36 62 -5 0 -17 -15 -27 -32z"/>
<path d="M1245 1520 c-3 -5 -2 -10 4 -10 5 0 13 5 16 10 3 6 2 10 -4 10 -5 0
-13 -4 -16 -10z"/>
<path d="M3820 1510 c-13 -8 -13 -10 2 -10 9 0 20 5 23 10 8 13 -5 13 -25 0z"/>
<path d="M721 1456 c-14 -14 -21 -29 -17 -33 9 -9 49 32 44 47 -2 6 -13 1 -27
-14z"/>
<path d="M657 1373 c-4 -3 -7 -11 -7 -17 0 -6 5 -5 12 2 6 6 9 14 7 17 -3 3
-9 2 -12 -2z"/>
<path d="M998 1342 c-35 -37 -78 -97 -78 -107 0 -14 50 37 82 83 35 50 33 64
-4 24z"/>
<path d="M1079 1322 c-93 -112 -149 -194 -149 -218 0 -5 17 9 37 31 21 22 36
44 35 49 -2 5 10 27 25 49 l28 40 7 -41 c4 -22 16 -60 27 -84 12 -24 19 -32
15 -18 -3 14 -10 44 -16 68 -7 31 -7 57 1 89 13 52 11 60 -10 35z"/>
<path d="M600 1310 c-8 -16 -8 -20 4 -20 9 0 20 9 26 20 8 16 8 20 -4 20 -9 0
-20 -9 -26 -20z"/>
<path d="M527 1219 c-20 -12 -52 -69 -38 -69 5 0 12 9 16 20 3 11 18 29 32 40
27 21 21 27 -10 9z"/>
<path d="M6001 1192 c-6 -11 -30 -76 -54 -143 -48 -135 -109 -267 -159 -345
-107 -166 -137 -213 -156 -245 l-22 -36 58 -64 c31 -35 76 -84 100 -109 68
-73 114 -145 123 -196 10 -51 15 -61 26 -50 13 13 5 73 -17 115 -17 33 -19 46
-9 57 9 11 8 14 -4 14 -8 0 -29 22 -47 49 -35 55 -69 89 -57 59 11 -29 -6 -20
-29 15 -57 88 -55 81 -29 117 13 18 22 38 18 43 -4 6 -1 7 6 3 7 -5 23 -5 36
-2 18 5 23 11 19 29 -7 36 15 123 36 142 11 10 20 28 20 41 0 12 16 40 36 61
20 21 48 63 61 93 26 57 80 123 95 114 4 -3 8 0 8 5 0 10 -21 16 -42 12 -5 0
-8 6 -8 14 0 15 46 32 57 21 9 -8 43 24 43 41 0 7 5 13 10 13 16 0 12 -20 -10
-47 -25 -32 -26 -52 -2 -30 26 24 31 21 32 -15 0 -18 2 -69 4 -113 2 -44 0
-111 -5 -150 -4 -38 -10 -101 -13 -140 -13 -139 -37 -331 -51 -400 -21 -104
-26 -165 -15 -165 14 0 46 144 64 295 5 41 24 170 31 215 2 14 7 59 10 100 4
41 9 84 11 94 11 58 15 214 6 237 -14 35 2 62 22 37 16 -21 26 -23 26 -5 0 7
-9 18 -20 25 -11 7 -20 19 -20 26 0 16 -59 56 -84 56 -9 0 -16 6 -16 13 0 7
-18 37 -39 66 -36 48 -40 51 -50 33z m73 -117 c-4 -8 -8 -15 -10 -15 -2 0 -4
7 -4 15 0 8 4 15 10 15 5 0 7 -7 4 -15z m-359 -594 c3 -5 1 -12 -5 -16 -5 -3
-10 1 -10 9 0 18 6 21 15 7z m-35 -61 c0 -5 -2 -10 -4 -10 -3 0 -8 5 -11 10
-3 6 -1 10 4 10 6 0 11 -4 11 -10z"/>
<path d="M832 1129 c-25 -26 -46 -79 -31 -79 5 0 9 6 9 14 0 8 12 29 26 46 30
36 26 52 -4 19z"/>
<path d="M276 1028 l-17 -33 20 24 c18 20 27 41 18 41 -1 0 -11 -15 -21 -32z"/>
<path d="M376 1034 c-9 -22 3 -32 14 -14 12 19 12 30 1 30 -5 0 -12 -7 -15
-16z"/>
<path d="M1180 993 c0 -7 13 -27 30 -45 16 -18 30 -27 30 -21 0 7 -13 27 -30
45 -16 18 -30 27 -30 21z"/>
<path d="M6301 895 c22 -33 102 -119 124 -134 l20 -15 -20 25 c-31 38 -140
146 -124 124z"/>
<path d="M198 793 c-22 -26 -30 -43 -21 -43 5 0 17 14 26 30 20 34 18 39 -5
13z"/>
<path d="M553 717 c-28 -41 -56 -107 -45 -107 5 0 18 17 30 38 12 20 31 52 43
70 29 44 2 44 -28 -1z"/>
<path d="M3913 730 c-12 -5 -36 -28 -53 -52 -34 -46 -36 -84 -10 -140 15 -31
47 -40 35 -10 -28 67 -28 66 -1 119 14 29 35 57 46 63 11 6 20 15 20 20 0 12
-8 12 -37 0z"/>
<path d="M1022 642 c-18 -15 -32 -30 -32 -35 0 -11 69 36 74 51 8 19 -6 14
-42 -16z"/>
<path d="M3099 593 c6 -10 27 -36 47 -58 21 -22 62 -68 91 -103 l53 -63 -16
-32 c-10 -17 -70 -84 -134 -147 -125 -123 -144 -148 -130 -170 7 -12 10 -12
16 3 7 20 51 16 95 -10 16 -10 32 -14 36 -9 15 14 -15 41 -55 50 -23 6 -42 13
-42 16 0 6 70 74 170 166 14 12 40 48 59 78 33 55 33 57 16 82 -22 34 -197
214 -208 214 -4 0 -3 -8 2 -17z"/>
<path d="M846 472 c-20 -33 -35 -279 -16 -267 4 2 8 35 9 72 2 74 4 96 15 161
7 39 4 53 -8 34z"/>
<path d="M3080 450 c0 -6 7 -13 15 -16 8 -3 19 -22 24 -41 12 -44 -6 -93 -51
-140 -36 -38 -21 -44 30 -13 50 31 66 97 41 169 -13 37 -59 69 -59 41z"/>
<path d="M417 444 c-4 -4 -7 -14 -7 -23 0 -11 3 -12 11 -4 6 6 10 16 7 23 -2
6 -7 8 -11 4z"/>
<path d="M5744 370 c3 -14 6 -28 6 -31 0 -4 7 -10 16 -13 8 -3 12 -2 9 4 -3 6
-13 22 -22 38 -14 26 -15 26 -9 2z"/>
</g>
</svg>
